<?xml version="1.0" encoding="UTF-8"?><svg xmlns="http://www.w3.org/2000/svg" xmlns:xlink="http://www.w3.org/1999/xlink" stroke-dasharray="none" shape-rendering="auto" font-family="'Dialog'" width="353" text-rendering="auto" fill-opacity="1" contentScriptType="text/ecmascript" color-interpolation="auto" color-rendering="auto" preserveAspectRatio="xMidYMid meet" font-size="12px" viewBox="0 0 353 348" fill="black" stroke="black" image-rendering="auto" stroke-miterlimit="10" zoomAndPan="magnify" version="1.0" stroke-linecap="square" stroke-linejoin="miter" contentStyleType="text/css" font-style="normal" height="348" stroke-width="1" stroke-dashoffset="0" font-weight="normal" stroke-opacity="1">
    <!--Generated by the Batik Graphics2D SVG Generator-->
    <defs id="genericDefs"/>
    <g>
        <defs id="defs1">
            <clipPath clipPathUnits="userSpaceOnUse" id="clipPath1">
                <path d="M9 9 L344 9 L344 339 L9 339 L9 9 Z"/>
            </clipPath>
            <clipPath clipPathUnits="userSpaceOnUse" id="clipPath2">
                <path d="M20 15 L96 15 L96 31 L20 31 L20 15 Z"/>
            </clipPath>
            <clipPath clipPathUnits="userSpaceOnUse" id="clipPath3">
                <path d="M109 121 L126 121 L126 138 L109 138 L109 121 Z"/>
            </clipPath>
            <clipPath clipPathUnits="userSpaceOnUse" id="clipPath4">
                <path d="M104 183 L205 183 L205 238 L104 238 L104 183 Z"/>
            </clipPath>
            <clipPath clipPathUnits="userSpaceOnUse" id="clipPath5">
                <path d="M131 189 L178 189 L178 205 L131 205 L131 189 Z"/>
            </clipPath>
            <clipPath clipPathUnits="userSpaceOnUse" id="clipPath6">
                <path d="M-1 -1 L354 -1 L354 349 L-1 349 L-1 -1 Z"/>
            </clipPath>
            <clipPath clipPathUnits="userSpaceOnUse" id="clipPath7">
                <path d="M152 236 L161 236 L161 246 L152 246 L152 236 Z"/>
            </clipPath>
            <clipPath clipPathUnits="userSpaceOnUse" id="clipPath8">
                <path d="M166 292 L276 292 L276 308 L166 308 L166 292 Z"/>
            </clipPath>
            <clipPath clipPathUnits="userSpaceOnUse" id="clipPath9">
                <path d="M203 214 L217 214 L217 229 L203 229 L203 214 Z"/>
            </clipPath>
            <clipPath clipPathUnits="userSpaceOnUse" id="clipPath10">
                <path d="M111 176 L120 176 L120 186 L111 186 L111 176 Z"/>
            </clipPath>
            <clipPath clipPathUnits="userSpaceOnUse" id="clipPath11">
                <path d="M203 192 L213 192 L213 201 L203 201 L203 192 Z"/>
            </clipPath>
            <clipPath clipPathUnits="userSpaceOnUse" id="clipPath12">
                <path d="M174 110 L284 110 L284 126 L174 126 L174 110 Z"/>
            </clipPath>
            <clipPath clipPathUnits="userSpaceOnUse" id="clipPath13">
                <path d="M145 171 L159 171 L159 186 L145 186 L145 171 Z"/>
            </clipPath>
        </defs>
        <g fill="rgb(250,250,250)" stroke-miterlimit="0" stroke-width="0" font-family="'Verdana'" stroke="rgb(250,250,250)" stroke-linejoin="round">
            <rect x="10" width="333" height="328" y="10" clip-path="url(#clipPath1)" stroke="none"/>
        </g>
        <g fill="silver" stroke-width="1.1" font-family="'Verdana'" stroke-linecap="butt" stroke="silver">
            <rect fill="none" x="10" width="332" height="327" y="10" clip-path="url(#clipPath1)"/>
            <text fill="black" x="21" xml:space="preserve" y="29" clip-path="url(#clipPath2)" stroke="none">main region</text>
            <circle fill="black" r="6.5" clip-path="url(#clipPath3)" cx="116.5" cy="128.5" stroke="none"/>
            <rect x="105" y="184" clip-path="url(#clipPath4)" fill="rgb(208,223,239)" width="99" rx="7.5" ry="7.5" height="53" stroke="none"/>
            <rect x="105" y="184" clip-path="url(#clipPath4)" fill="none" width="98" rx="7.5" ry="7.5" height="52"/>
            <text x="132" y="203" clip-path="url(#clipPath5)" fill="black" stroke="none" font-weight="bold" xml:space="preserve">StateA</text>
            <line clip-path="url(#clipPath6)" fill="none" x1="204" x2="237" y1="221" y2="221" stroke="rgb(64,64,64)"/>
            <line clip-path="url(#clipPath6)" fill="none" x1="237" x2="237" y1="221" y2="284" stroke="rgb(64,64,64)"/>
            <line clip-path="url(#clipPath6)" fill="none" x1="237" x2="156" y1="284" y2="284" stroke="rgb(64,64,64)"/>
            <line clip-path="url(#clipPath6)" fill="none" x1="156" x2="156" y1="284" y2="237" stroke="rgb(64,64,64)"/>
            <polygon fill="rgb(64,64,64)" clip-path="url(#clipPath7)" points=" 156 237 159 244 153 244" stroke="none"/>
            <polygon fill="none" clip-path="url(#clipPath7)" points=" 156 237 159 244 153 244" stroke="rgb(64,64,64)"/>
            <text x="167" y="306" clip-path="url(#clipPath8)" fill="rgb(14,48,131)" stroke="none" font-weight="bold" xml:space="preserve">after</text>
            <text fill="black" x="199" xml:space="preserve" y="306" clip-path="url(#clipPath8)" stroke="none"> 1</text>
            <text x="211" y="306" clip-path="url(#clipPath8)" fill="rgb(14,48,131)" stroke="none" font-weight="bold" xml:space="preserve">s</text>
            <text fill="black" x="218" xml:space="preserve" y="306" clip-path="url(#clipPath8)" stroke="none"> / </text>
            <text x="231" y="306" clip-path="url(#clipPath8)" fill="rgb(14,48,131)" stroke="none" font-weight="bold" xml:space="preserve">raise</text>
            <text fill="black" x="264" xml:space="preserve" y="306" clip-path="url(#clipPath8)" stroke="none"> x</text>
            <ellipse clip-path="url(#clipPath9)" fill="white" rx="5" cx="209" ry="5.5" cy="220.5" stroke="none"/>
        </g>
        <g font-size="10px" stroke-width="1.1" font-family="'Arial'" stroke-linecap="butt">
            <text x="207" xml:space="preserve" y="225" clip-path="url(#clipPath9)" stroke="none">1</text>
        </g>
        <g fill="rgb(64,64,64)" stroke-width="1.1" font-family="'Verdana'" stroke-linecap="butt" stroke="rgb(64,64,64)">
            <line y2="184" fill="none" x1="115" clip-path="url(#clipPath6)" x2="115" y1="135"/>
            <polygon points=" 115 184 112 177 118 177" clip-path="url(#clipPath10)" stroke="none"/>
            <polygon fill="none" points=" 115 184 112 177 118 177" clip-path="url(#clipPath10)"/>
            <line y2="144" fill="none" x1="152" clip-path="url(#clipPath6)" x2="152" y1="184"/>
            <line y2="144" fill="none" x1="152" clip-path="url(#clipPath6)" x2="239" y1="144"/>
            <line y2="196" fill="none" x1="239" clip-path="url(#clipPath6)" x2="239" y1="144"/>
            <line y2="196" fill="none" x1="239" clip-path="url(#clipPath6)" x2="204" y1="196"/>
            <polygon points=" 204 196 211 193 211 199" clip-path="url(#clipPath11)" stroke="none"/>
            <polygon fill="none" points=" 204 196 211 193 211 199" clip-path="url(#clipPath11)"/>
            <text x="175" y="124" clip-path="url(#clipPath12)" fill="rgb(14,48,131)" stroke="none" font-weight="bold" xml:space="preserve">after</text>
            <text fill="black" x="207" xml:space="preserve" y="124" clip-path="url(#clipPath12)" stroke="none"> 2</text>
            <text x="219" y="124" clip-path="url(#clipPath12)" fill="rgb(14,48,131)" stroke="none" font-weight="bold" xml:space="preserve">s</text>
            <text fill="black" x="226" xml:space="preserve" y="124" clip-path="url(#clipPath12)" stroke="none"> / </text>
            <text x="239" y="124" clip-path="url(#clipPath12)" fill="rgb(14,48,131)" stroke="none" font-weight="bold" xml:space="preserve">raise</text>
            <text fill="black" x="272" xml:space="preserve" y="124" clip-path="url(#clipPath12)" stroke="none"> y</text>
            <ellipse clip-path="url(#clipPath13)" fill="white" rx="5" cx="151" ry="5.5" cy="177.5" stroke="none"/>
        </g>
        <g font-size="10px" stroke-width="1.1" font-family="'Arial'" stroke-linecap="butt">
            <text x="149" xml:space="preserve" y="182" clip-path="url(#clipPath13)" stroke="none">2</text>
        </g>
    </g>
</svg>
