<?xml version="1.0" encoding="UTF-8"?><svg xmlns="http://www.w3.org/2000/svg" xmlns:xlink="http://www.w3.org/1999/xlink" stroke-dasharray="none" shape-rendering="auto" font-family="'Dialog'" width="642" text-rendering="auto" fill-opacity="1" contentScriptType="text/ecmascript" color-interpolation="auto" color-rendering="auto" preserveAspectRatio="xMidYMid meet" font-size="12px" viewBox="0 0 642 515" fill="black" stroke="black" image-rendering="auto" stroke-miterlimit="10" zoomAndPan="magnify" version="1.0" stroke-linecap="square" stroke-linejoin="miter" contentStyleType="text/css" font-style="normal" height="515" stroke-width="1" stroke-dashoffset="0" font-weight="normal" stroke-opacity="1">
    <!--Generated by the Batik Graphics2D SVG Generator-->
    <defs id="genericDefs"/>
    <g>
        <defs id="defs1">
            <clipPath clipPathUnits="userSpaceOnUse" id="clipPath1">
                <path d="M9 9 L633 9 L633 506 L9 506 L9 9 Z"/>
            </clipPath>
            <clipPath clipPathUnits="userSpaceOnUse" id="clipPath2">
                <path d="M20 15 L96 15 L96 31 L20 31 L20 15 Z"/>
            </clipPath>
            <clipPath clipPathUnits="userSpaceOnUse" id="clipPath3">
                <path d="M94 65 L469 65 L469 394 L94 394 L94 65 Z"/>
            </clipPath>
            <clipPath clipPathUnits="userSpaceOnUse" id="clipPath4">
                <path d="M262 71 L302 71 L302 87 L262 87 L262 71 Z"/>
            </clipPath>
            <clipPath clipPathUnits="userSpaceOnUse" id="clipPath5">
                <path d="M100 104 L464 104 L464 389 L100 389 L100 104 Z"/>
            </clipPath>
            <clipPath clipPathUnits="userSpaceOnUse" id="clipPath6">
                <path d="M111 110 L126 110 L126 126 L111 126 L111 110 Z"/>
            </clipPath>
            <clipPath clipPathUnits="userSpaceOnUse" id="clipPath7">
                <path d="M156 194 L257 194 L257 249 L156 249 L156 194 Z"/>
            </clipPath>
            <clipPath clipPathUnits="userSpaceOnUse" id="clipPath8">
                <path d="M188 200 L226 200 L226 216 L188 216 L188 200 Z"/>
            </clipPath>
            <clipPath clipPathUnits="userSpaceOnUse" id="clipPath9">
                <path d="M161 132 L178 132 L178 149 L161 149 L161 132 Z"/>
            </clipPath>
            <clipPath clipPathUnits="userSpaceOnUse" id="clipPath10">
                <path d="M43 112 L60 112 L60 129 L43 129 L43 112 Z"/>
            </clipPath>
            <clipPath clipPathUnits="userSpaceOnUse" id="clipPath11">
                <path d="M-1 -1 L643 -1 L643 516 L-1 516 L-1 -1 Z"/>
            </clipPath>
            <clipPath clipPathUnits="userSpaceOnUse" id="clipPath12">
                <path d="M87 110 L97 110 L97 119 L87 119 L87 110 Z"/>
            </clipPath>
            <clipPath clipPathUnits="userSpaceOnUse" id="clipPath13">
                <path d="M371 392 L380 392 L380 402 L371 402 L371 392 Z"/>
            </clipPath>
            <clipPath clipPathUnits="userSpaceOnUse" id="clipPath14">
                <path d="M445 466 L582 466 L582 482 L445 482 L445 466 Z"/>
            </clipPath>
            <clipPath clipPathUnits="userSpaceOnUse" id="clipPath15">
                <path d="M163 187 L172 187 L172 197 L163 197 L163 187 Z"/>
            </clipPath>
            <clipPath clipPathUnits="userSpaceOnUse" id="clipPath16">
                <path d="M228 247 L237 247 L237 257 L228 257 L228 247 Z"/>
            </clipPath>
            <clipPath clipPathUnits="userSpaceOnUse" id="clipPath17">
                <path d="M247 318 L382 318 L382 334 L247 334 L247 318 Z"/>
            </clipPath>
        </defs>
        <g fill="rgb(250,250,250)" stroke-miterlimit="0" stroke-width="0" font-family="'Verdana'" stroke="rgb(250,250,250)" stroke-linejoin="round">
            <rect x="10" width="622" height="495" y="10" clip-path="url(#clipPath1)" stroke="none"/>
        </g>
        <g fill="silver" stroke-width="1.1" font-family="'Verdana'" stroke-linecap="butt" stroke="silver">
            <rect fill="none" x="10" width="621" height="494" y="10" clip-path="url(#clipPath1)"/>
            <text fill="black" x="21" xml:space="preserve" y="29" clip-path="url(#clipPath2)" stroke="none">main region</text>
            <rect x="95" y="66" clip-path="url(#clipPath3)" fill="rgb(208,223,239)" width="373" rx="7.5" ry="7.5" height="327" stroke="none"/>
            <rect x="95" y="66" clip-path="url(#clipPath3)" fill="none" width="372" rx="7.5" ry="7.5" height="326"/>
            <text x="263" y="85" clip-path="url(#clipPath4)" fill="black" stroke="none" font-weight="bold" xml:space="preserve">Outer</text>
            <rect x="101" y="105" clip-path="url(#clipPath5)" fill="rgb(250,250,250)" width="362" height="283" stroke="none"/>
            <rect fill="none" x="101" width="361" height="282" y="105" clip-path="url(#clipPath5)"/>
            <text fill="black" x="112" xml:space="preserve" y="124" clip-path="url(#clipPath6)" stroke="none">r1</text>
            <rect x="157" y="195" clip-path="url(#clipPath7)" fill="rgb(208,223,239)" width="99" rx="7.5" ry="7.5" height="53" stroke="none"/>
            <rect x="157" y="195" clip-path="url(#clipPath7)" fill="none" width="98" rx="7.5" ry="7.5" height="52"/>
            <text x="189" y="214" clip-path="url(#clipPath8)" fill="black" stroke="none" font-weight="bold" xml:space="preserve">Inner</text>
            <circle fill="black" r="6.5" clip-path="url(#clipPath9)" cx="168.5" cy="139.5" stroke="none"/>
            <circle fill="black" r="6.5" clip-path="url(#clipPath10)" cx="50.5" cy="119.5" stroke="none"/>
            <line clip-path="url(#clipPath11)" fill="none" x1="55" x2="95" y1="114" y2="114" stroke="rgb(64,64,64)"/>
            <polygon fill="rgb(64,64,64)" clip-path="url(#clipPath12)" points=" 95 114 88 117 88 111" stroke="none"/>
            <polygon fill="none" clip-path="url(#clipPath12)" points=" 95 114 88 117 88 111" stroke="rgb(64,64,64)"/>
            <line clip-path="url(#clipPath11)" fill="none" x1="468" x2="530" y1="310" y2="310" stroke="rgb(64,64,64)"/>
            <line clip-path="url(#clipPath11)" fill="none" x1="530" x2="530" y1="310" y2="455" stroke="rgb(64,64,64)"/>
            <line clip-path="url(#clipPath11)" fill="none" x1="530" x2="375" y1="455" y2="455" stroke="rgb(64,64,64)"/>
            <line clip-path="url(#clipPath11)" fill="none" x1="375" x2="375" y1="455" y2="393" stroke="rgb(64,64,64)"/>
            <polygon fill="rgb(64,64,64)" clip-path="url(#clipPath13)" points=" 375 393 378 400 372 400" stroke="none"/>
            <polygon fill="none" clip-path="url(#clipPath13)" points=" 375 393 378 400 372 400" stroke="rgb(64,64,64)"/>
            <text x="446" y="480" clip-path="url(#clipPath14)" fill="rgb(14,48,131)" stroke="none" font-weight="bold" xml:space="preserve">after</text>
            <text fill="black" x="478" xml:space="preserve" y="480" clip-path="url(#clipPath14)" stroke="none"> 3</text>
            <text x="490" y="480" clip-path="url(#clipPath14)" fill="rgb(14,48,131)" stroke="none" font-weight="bold" xml:space="preserve">s</text>
            <text fill="black" x="497" xml:space="preserve" y="480" clip-path="url(#clipPath14)" stroke="none"> / </text>
            <text x="510" y="480" clip-path="url(#clipPath14)" fill="rgb(14,48,131)" stroke="none" font-weight="bold" xml:space="preserve">raise</text>
            <text fill="black" x="543" xml:space="preserve" y="480" clip-path="url(#clipPath14)" stroke="none"> outer</text>
            <line clip-path="url(#clipPath11)" fill="none" x1="167" x2="167" y1="146" y2="195" stroke="rgb(64,64,64)"/>
            <polygon fill="rgb(64,64,64)" clip-path="url(#clipPath15)" points=" 167 195 164 188 170 188" stroke="none"/>
            <polygon fill="none" clip-path="url(#clipPath15)" points=" 167 195 164 188 170 188" stroke="rgb(64,64,64)"/>
            <line clip-path="url(#clipPath11)" fill="none" x1="256" x2="318" y1="234" y2="234" stroke="rgb(64,64,64)"/>
            <line clip-path="url(#clipPath11)" fill="none" x1="318" x2="318" y1="234" y2="310" stroke="rgb(64,64,64)"/>
            <line clip-path="url(#clipPath11)" fill="none" x1="318" x2="232" y1="310" y2="310" stroke="rgb(64,64,64)"/>
            <line clip-path="url(#clipPath11)" fill="none" x1="232" x2="232" y1="310" y2="248" stroke="rgb(64,64,64)"/>
            <polygon fill="rgb(64,64,64)" clip-path="url(#clipPath16)" points=" 232 248 235 255 229 255" stroke="none"/>
            <polygon fill="none" clip-path="url(#clipPath16)" points=" 232 248 235 255 229 255" stroke="rgb(64,64,64)"/>
            <text x="248" y="332" clip-path="url(#clipPath17)" fill="rgb(14,48,131)" stroke="none" font-weight="bold" xml:space="preserve">after</text>
            <text fill="black" x="280" xml:space="preserve" y="332" clip-path="url(#clipPath17)" stroke="none"> 2</text>
            <text x="292" y="332" clip-path="url(#clipPath17)" fill="rgb(14,48,131)" stroke="none" font-weight="bold" xml:space="preserve">s</text>
            <text fill="black" x="299" xml:space="preserve" y="332" clip-path="url(#clipPath17)" stroke="none"> / </text>
            <text x="312" y="332" clip-path="url(#clipPath17)" fill="rgb(14,48,131)" stroke="none" font-weight="bold" xml:space="preserve">raise</text>
            <text fill="black" x="345" xml:space="preserve" y="332" clip-path="url(#clipPath17)" stroke="none"> inner</text>
        </g>
    </g>
</svg>
