<?xml version="1.0" encoding="UTF-8"?><svg xmlns="http://www.w3.org/2000/svg" xmlns:xlink="http://www.w3.org/1999/xlink" stroke-dasharray="none" shape-rendering="auto" font-family="'Dialog'" width="646" text-rendering="auto" fill-opacity="1" contentScriptType="text/ecmascript" color-interpolation="auto" color-rendering="auto" preserveAspectRatio="xMidYMid meet" font-size="12px" viewBox="0 0 646 291" fill="black" stroke="black" image-rendering="auto" stroke-miterlimit="10" zoomAndPan="magnify" version="1.0" stroke-linecap="square" stroke-linejoin="miter" contentStyleType="text/css" font-style="normal" height="291" stroke-width="1" stroke-dashoffset="0" font-weight="normal" stroke-opacity="1">
    <!--Generated by the Batik Graphics2D SVG Generator-->
    <defs id="genericDefs"/>
    <g>
        <defs id="defs1">
            <clipPath clipPathUnits="userSpaceOnUse" id="clipPath1">
                <path d="M9 9 L637 9 L637 282 L9 282 L9 9 Z"/>
            </clipPath>
            <clipPath clipPathUnits="userSpaceOnUse" id="clipPath2">
                <path d="M20 15 L96 15 L96 31 L20 31 L20 15 Z"/>
            </clipPath>
            <clipPath clipPathUnits="userSpaceOnUse" id="clipPath3">
                <path d="M401 116 L471 116 L471 171 L401 171 L401 116 Z"/>
            </clipPath>
            <clipPath clipPathUnits="userSpaceOnUse" id="clipPath4">
                <path d="M417 122 L456 122 L456 138 L417 138 L417 122 Z"/>
            </clipPath>
            <clipPath clipPathUnits="userSpaceOnUse" id="clipPath5">
                <path d="M511 54 L566 54 L566 109 L511 109 L511 54 Z"/>
            </clipPath>
            <clipPath clipPathUnits="userSpaceOnUse" id="clipPath6">
                <path d="M522 60 L555 60 L555 76 L522 76 L522 60 Z"/>
            </clipPath>
            <clipPath clipPathUnits="userSpaceOnUse" id="clipPath7">
                <path d="M511 196 L566 196 L566 251 L511 251 L511 196 Z"/>
            </clipPath>
            <clipPath clipPathUnits="userSpaceOnUse" id="clipPath8">
                <path d="M524 202 L553 202 L553 218 L524 218 L524 202 Z"/>
            </clipPath>
            <clipPath clipPathUnits="userSpaceOnUse" id="clipPath9">
                <path d="M86 64 L103 64 L103 81 L86 81 L86 64 Z"/>
            </clipPath>
            <clipPath clipPathUnits="userSpaceOnUse" id="clipPath10">
                <path d="M72 116 L133 116 L133 171 L72 171 L72 116 Z"/>
            </clipPath>
            <clipPath clipPathUnits="userSpaceOnUse" id="clipPath11">
                <path d="M82 122 L124 122 L124 138 L82 138 L82 122 Z"/>
            </clipPath>
            <clipPath clipPathUnits="userSpaceOnUse" id="clipPath12">
                <path d="M-1 -1 L647 -1 L647 292 L-1 292 L-1 -1 Z"/>
            </clipPath>
            <clipPath clipPathUnits="userSpaceOnUse" id="clipPath13">
                <path d="M504 77 L514 77 L514 86 L504 86 L504 77 Z"/>
            </clipPath>
            <clipPath clipPathUnits="userSpaceOnUse" id="clipPath14">
                <path d="M413 55 L459 55 L459 71 L413 71 L413 55 Z"/>
            </clipPath>
            <clipPath clipPathUnits="userSpaceOnUse" id="clipPath15">
                <path d="M429 104 L443 104 L443 119 L429 119 L429 104 Z"/>
            </clipPath>
            <clipPath clipPathUnits="userSpaceOnUse" id="clipPath16">
                <path d="M504 219 L514 219 L514 228 L504 228 L504 219 Z"/>
            </clipPath>
            <clipPath clipPathUnits="userSpaceOnUse" id="clipPath17">
                <path d="M413 234 L459 234 L459 250 L413 250 L413 234 Z"/>
            </clipPath>
            <clipPath clipPathUnits="userSpaceOnUse" id="clipPath18">
                <path d="M428 169 L442 169 L442 184 L428 184 L428 169 Z"/>
            </clipPath>
            <clipPath clipPathUnits="userSpaceOnUse" id="clipPath19">
                <path d="M91 109 L100 109 L100 119 L91 119 L91 109 Z"/>
            </clipPath>
            <clipPath clipPathUnits="userSpaceOnUse" id="clipPath20">
                <path d="M394 142 L404 142 L404 151 L394 151 L394 142 Z"/>
            </clipPath>
            <clipPath clipPathUnits="userSpaceOnUse" id="clipPath21">
                <path d="M168 121 L275 121 L275 137 L168 137 L168 121 Z"/>
            </clipPath>
        </defs>
        <g fill="rgb(250,250,250)" stroke-miterlimit="0" stroke-width="0" font-family="'Verdana'" stroke="rgb(250,250,250)" stroke-linejoin="round">
            <rect x="10" width="626" height="271" y="10" clip-path="url(#clipPath1)" stroke="none"/>
        </g>
        <g fill="silver" stroke-width="1.1" font-family="'Verdana'" stroke-linecap="butt" stroke="silver">
            <rect fill="none" x="10" width="625" height="270" y="10" clip-path="url(#clipPath1)"/>
            <text fill="black" x="21" xml:space="preserve" y="29" clip-path="url(#clipPath2)" stroke="none">main region</text>
            <rect x="402" y="117" clip-path="url(#clipPath3)" fill="rgb(208,223,239)" width="68" rx="7.5" ry="7.5" height="53" stroke="none"/>
            <rect x="402" y="117" clip-path="url(#clipPath3)" fill="none" width="67" rx="7.5" ry="7.5" height="52"/>
            <text x="418" y="136" clip-path="url(#clipPath4)" fill="black" stroke="none" font-weight="bold" xml:space="preserve">Temp</text>
            <rect x="512" y="55" clip-path="url(#clipPath5)" fill="rgb(208,223,239)" width="53" rx="7.5" ry="7.5" height="53" stroke="none"/>
            <rect x="512" y="55" clip-path="url(#clipPath5)" fill="none" width="52" rx="7.5" ry="7.5" height="52"/>
            <text x="523" y="74" clip-path="url(#clipPath6)" fill="black" stroke="none" font-weight="bold" xml:space="preserve">Zero</text>
            <rect x="512" y="197" clip-path="url(#clipPath7)" fill="rgb(208,223,239)" width="53" rx="7.5" ry="7.5" height="53" stroke="none"/>
            <rect x="512" y="197" clip-path="url(#clipPath7)" fill="none" width="52" rx="7.5" ry="7.5" height="52"/>
            <text x="525" y="216" clip-path="url(#clipPath8)" fill="black" stroke="none" font-weight="bold" xml:space="preserve">One</text>
            <circle fill="black" r="6.5" clip-path="url(#clipPath9)" cx="93.5" cy="71.5" stroke="none"/>
            <rect x="73" y="117" clip-path="url(#clipPath10)" fill="rgb(208,223,239)" width="59" rx="7.5" ry="7.5" height="53" stroke="none"/>
            <rect x="73" y="117" clip-path="url(#clipPath10)" fill="none" width="58" rx="7.5" ry="7.5" height="52"/>
            <text x="83" y="136" clip-path="url(#clipPath11)" fill="black" stroke="none" font-weight="bold" xml:space="preserve">Initial</text>
            <line clip-path="url(#clipPath12)" fill="none" x1="436" x2="436" y1="117" y2="81" stroke="rgb(64,64,64)"/>
            <line clip-path="url(#clipPath12)" fill="none" x1="436" x2="512" y1="81" y2="81" stroke="rgb(64,64,64)"/>
            <polygon fill="rgb(64,64,64)" clip-path="url(#clipPath13)" points=" 512 81 505 84 505 78" stroke="none"/>
            <polygon fill="none" clip-path="url(#clipPath13)" points=" 512 81 505 84 505 78" stroke="rgb(64,64,64)"/>
            <text fill="black" x="414" xml:space="preserve" y="69" clip-path="url(#clipPath14)" stroke="none">[x==0]</text>
            <ellipse clip-path="url(#clipPath15)" fill="white" rx="5" cx="435" ry="5.5" cy="110.5" stroke="none"/>
        </g>
        <g font-size="10px" stroke-width="1.1" font-family="'Arial'" stroke-linecap="butt">
            <text x="433" xml:space="preserve" y="115" clip-path="url(#clipPath15)" stroke="none">1</text>
        </g>
        <g fill="rgb(64,64,64)" stroke-width="1.1" font-family="'Verdana'" stroke-linecap="butt" stroke="rgb(64,64,64)">
            <line y2="223" fill="none" x1="435" clip-path="url(#clipPath12)" x2="435" y1="170"/>
            <line y2="223" fill="none" x1="435" clip-path="url(#clipPath12)" x2="512" y1="223"/>
            <polygon points=" 512 223 505 226 505 220" clip-path="url(#clipPath16)" stroke="none"/>
            <polygon fill="none" points=" 512 223 505 226 505 220" clip-path="url(#clipPath16)"/>
            <text fill="black" x="414" xml:space="preserve" y="248" clip-path="url(#clipPath17)" stroke="none">[x==1]</text>
            <ellipse clip-path="url(#clipPath18)" fill="white" rx="5" cx="434" ry="5.5" cy="175.5" stroke="none"/>
        </g>
        <g font-size="10px" stroke-width="1.1" font-family="'Arial'" stroke-linecap="butt">
            <text x="432" xml:space="preserve" y="180" clip-path="url(#clipPath18)" stroke="none">2</text>
        </g>
        <g fill="rgb(64,64,64)" stroke-width="1.1" font-family="'Verdana'" stroke-linecap="butt" stroke="rgb(64,64,64)">
            <line y2="117" fill="none" x1="95" clip-path="url(#clipPath12)" x2="95" y1="78"/>
            <polygon points=" 95 117 92 110 98 110" clip-path="url(#clipPath19)" stroke="none"/>
            <polygon fill="none" points=" 95 117 92 110 98 110" clip-path="url(#clipPath19)"/>
            <line y2="146" fill="none" x1="132" clip-path="url(#clipPath12)" x2="402" y1="146"/>
            <polygon points=" 402 146 395 149 395 143" clip-path="url(#clipPath20)" stroke="none"/>
            <polygon fill="none" points=" 402 146 395 149 395 143" clip-path="url(#clipPath20)"/>
            <text x="169" y="135" clip-path="url(#clipPath21)" fill="rgb(14,48,131)" stroke="none" font-weight="bold" xml:space="preserve">after</text>
            <text fill="black" x="201" xml:space="preserve" y="135" clip-path="url(#clipPath21)" stroke="none"> 1</text>
            <text x="213" y="135" clip-path="url(#clipPath21)" fill="rgb(14,48,131)" stroke="none" font-weight="bold" xml:space="preserve">s</text>
            <text fill="black" x="220" xml:space="preserve" y="135" clip-path="url(#clipPath21)" stroke="none"> / x += 1</text>
        </g>
    </g>
</svg>
