<?xml version="1.0" encoding="UTF-8"?><svg xmlns="http://www.w3.org/2000/svg" xmlns:xlink="http://www.w3.org/1999/xlink" stroke-dasharray="none" shape-rendering="auto" font-family="'Dialog'" width="1187" text-rendering="auto" fill-opacity="1" contentScriptType="text/ecmascript" color-interpolation="auto" color-rendering="auto" preserveAspectRatio="xMidYMid meet" font-size="12px" viewBox="0 0 1187 472" fill="black" stroke="black" image-rendering="auto" stroke-miterlimit="10" zoomAndPan="magnify" version="1.0" stroke-linecap="square" stroke-linejoin="miter" contentStyleType="text/css" font-style="normal" height="472" stroke-width="1" stroke-dashoffset="0" font-weight="normal" stroke-opacity="1">
    <!--Generated by the Batik Graphics2D SVG Generator-->
    <defs id="genericDefs"/>
    <g>
        <defs id="defs1">
            <clipPath clipPathUnits="userSpaceOnUse" id="clipPath1">
                <path d="M9 9 L1178 9 L1178 463 L9 463 L9 9 Z"/>
            </clipPath>
            <clipPath clipPathUnits="userSpaceOnUse" id="clipPath2">
                <path d="M20 15 L96 15 L96 31 L20 31 L20 15 Z"/>
            </clipPath>
            <clipPath clipPathUnits="userSpaceOnUse" id="clipPath3">
                <path d="M100 46 L1148 46 L1148 413 L100 413 L100 46 Z"/>
            </clipPath>
            <clipPath clipPathUnits="userSpaceOnUse" id="clipPath4">
                <path d="M586 52 L663 52 L663 68 L586 68 L586 52 Z"/>
            </clipPath>
            <clipPath clipPathUnits="userSpaceOnUse" id="clipPath5">
                <path d="M106 85 L803 85 L803 408 L106 408 L106 85 Z"/>
            </clipPath>
            <clipPath clipPathUnits="userSpaceOnUse" id="clipPath6">
                <path d="M117 91 L132 91 L132 107 L117 107 L117 91 Z"/>
            </clipPath>
            <clipPath clipPathUnits="userSpaceOnUse" id="clipPath7">
                <path d="M353 201 L423 201 L423 256 L353 256 L353 201 Z"/>
            </clipPath>
            <clipPath clipPathUnits="userSpaceOnUse" id="clipPath8">
                <path d="M369 207 L408 207 L408 223 L369 223 L369 207 Z"/>
            </clipPath>
            <clipPath clipPathUnits="userSpaceOnUse" id="clipPath9">
                <path d="M144 142 L161 142 L161 159 L144 159 L144 142 Z"/>
            </clipPath>
            <clipPath clipPathUnits="userSpaceOnUse" id="clipPath10">
                <path d="M569 260 L624 260 L624 315 L569 315 L569 260 Z"/>
            </clipPath>
            <clipPath clipPathUnits="userSpaceOnUse" id="clipPath11">
                <path d="M582 266 L611 266 L611 282 L582 282 L582 266 Z"/>
            </clipPath>
            <clipPath clipPathUnits="userSpaceOnUse" id="clipPath12">
                <path d="M139 194 L201 194 L201 249 L139 249 L139 194 Z"/>
            </clipPath>
            <clipPath clipPathUnits="userSpaceOnUse" id="clipPath13">
                <path d="M149 200 L191 200 L191 216 L149 216 L149 200 Z"/>
            </clipPath>
            <clipPath clipPathUnits="userSpaceOnUse" id="clipPath14">
                <path d="M569 149 L624 149 L624 204 L569 204 L569 149 Z"/>
            </clipPath>
            <clipPath clipPathUnits="userSpaceOnUse" id="clipPath15">
                <path d="M580 155 L613 155 L613 171 L580 171 L580 155 Z"/>
            </clipPath>
            <clipPath clipPathUnits="userSpaceOnUse" id="clipPath16">
                <path d="M800 85 L1143 85 L1143 408 L800 408 L800 85 Z"/>
            </clipPath>
            <clipPath clipPathUnits="userSpaceOnUse" id="clipPath17">
                <path d="M811 91 L826 91 L826 107 L811 107 L811 91 Z"/>
            </clipPath>
            <clipPath clipPathUnits="userSpaceOnUse" id="clipPath18">
                <path d="M921 197 L963 197 L963 252 L921 252 L921 197 Z"/>
            </clipPath>
            <clipPath clipPathUnits="userSpaceOnUse" id="clipPath19">
                <path d="M937 203 L948 203 L948 219 L937 219 L937 203 Z"/>
            </clipPath>
            <clipPath clipPathUnits="userSpaceOnUse" id="clipPath20">
                <path d="M933 161 L950 161 L950 178 L933 178 L933 161 Z"/>
            </clipPath>
            <clipPath clipPathUnits="userSpaceOnUse" id="clipPath21">
                <path d="M921 309 L963 309 L963 364 L921 364 L921 309 Z"/>
            </clipPath>
            <clipPath clipPathUnits="userSpaceOnUse" id="clipPath22">
                <path d="M937 315 L948 315 L948 331 L937 331 L937 315 Z"/>
            </clipPath>
            <clipPath clipPathUnits="userSpaceOnUse" id="clipPath23">
                <path d="M54 79 L71 79 L71 96 L54 96 L54 79 Z"/>
            </clipPath>
            <clipPath clipPathUnits="userSpaceOnUse" id="clipPath24">
                <path d="M107 86 L119 86 L119 98 L107 98 L107 86 Z"/>
            </clipPath>
            <clipPath clipPathUnits="userSpaceOnUse" id="clipPath25">
                <path d="M801 86 L813 86 L813 98 L801 98 L801 86 Z"/>
            </clipPath>
            <clipPath clipPathUnits="userSpaceOnUse" id="clipPath26">
                <path d="M-1 -1 L1188 -1 L1188 473 L-1 473 L-1 -1 Z"/>
            </clipPath>
            <clipPath clipPathUnits="userSpaceOnUse" id="clipPath27">
                <path d="M562 169 L572 169 L572 178 L562 178 L562 169 Z"/>
            </clipPath>
            <clipPath clipPathUnits="userSpaceOnUse" id="clipPath28">
                <path d="M470 150 L516 150 L516 166 L470 166 L470 150 Z"/>
            </clipPath>
            <clipPath clipPathUnits="userSpaceOnUse" id="clipPath29">
                <path d="M421 211 L435 211 L435 226 L421 226 L421 211 Z"/>
            </clipPath>
            <clipPath clipPathUnits="userSpaceOnUse" id="clipPath30">
                <path d="M938 190 L947 190 L947 200 L938 200 L938 190 Z"/>
            </clipPath>
            <clipPath clipPathUnits="userSpaceOnUse" id="clipPath31">
                <path d="M937 302 L946 302 L946 312 L937 312 L937 302 Z"/>
            </clipPath>
            <clipPath clipPathUnits="userSpaceOnUse" id="clipPath32">
                <path d="M873 271 L926 271 L926 287 L873 287 L873 271 Z"/>
            </clipPath>
            <clipPath clipPathUnits="userSpaceOnUse" id="clipPath33">
                <path d="M346 217 L356 217 L356 226 L346 226 L346 217 Z"/>
            </clipPath>
            <clipPath clipPathUnits="userSpaceOnUse" id="clipPath34">
                <path d="M229 196 L336 196 L336 212 L229 212 L229 196 Z"/>
            </clipPath>
            <clipPath clipPathUnits="userSpaceOnUse" id="clipPath35">
                <path d="M93 78 L103 78 L103 87 L93 87 L93 78 Z"/>
            </clipPath>
            <clipPath clipPathUnits="userSpaceOnUse" id="clipPath36">
                <path d="M149 187 L158 187 L158 197 L149 197 L149 187 Z"/>
            </clipPath>
            <clipPath clipPathUnits="userSpaceOnUse" id="clipPath37">
                <path d="M562 282 L572 282 L572 291 L562 291 L562 282 Z"/>
            </clipPath>
            <clipPath clipPathUnits="userSpaceOnUse" id="clipPath38">
                <path d="M473 298 L519 298 L519 314 L473 314 L473 298 Z"/>
            </clipPath>
            <clipPath clipPathUnits="userSpaceOnUse" id="clipPath39">
                <path d="M421 231 L435 231 L435 246 L421 246 L421 231 Z"/>
            </clipPath>
        </defs>
        <g fill="rgb(250,250,250)" stroke-miterlimit="0" stroke-width="0" font-family="'Verdana'" stroke="rgb(250,250,250)" stroke-linejoin="round">
            <rect x="10" width="1167" height="452" y="10" clip-path="url(#clipPath1)" stroke="none"/>
        </g>
        <g fill="silver" stroke-width="1.1" font-family="'Verdana'" stroke-linecap="butt" stroke="silver">
            <rect fill="none" x="10" width="1166" height="451" y="10" clip-path="url(#clipPath1)"/>
            <text fill="black" x="21" xml:space="preserve" y="29" clip-path="url(#clipPath2)" stroke="none">main region</text>
            <rect x="101" y="47" clip-path="url(#clipPath3)" fill="rgb(208,223,239)" width="1046" rx="7.5" ry="7.5" height="365" stroke="none"/>
            <rect x="101" y="47" clip-path="url(#clipPath3)" fill="none" width="1045" rx="7.5" ry="7.5" height="364"/>
            <text x="587" y="66" clip-path="url(#clipPath4)" fill="black" stroke="none" font-weight="bold" xml:space="preserve">Orthogonal</text>
            <rect x="107" y="86" clip-path="url(#clipPath5)" fill="rgb(250,250,250)" width="695" height="321" stroke="none"/>
            <rect fill="none" x="107" width="694" height="320" y="86" clip-path="url(#clipPath5)"/>
            <text fill="black" x="118" xml:space="preserve" y="105" clip-path="url(#clipPath6)" stroke="none">r1</text>
            <rect x="354" y="202" clip-path="url(#clipPath7)" fill="rgb(208,223,239)" width="68" rx="7.5" ry="7.5" height="53" stroke="none"/>
            <rect x="354" y="202" clip-path="url(#clipPath7)" fill="none" width="67" rx="7.5" ry="7.5" height="52"/>
            <text x="370" y="221" clip-path="url(#clipPath8)" fill="black" stroke="none" font-weight="bold" xml:space="preserve">Temp</text>
            <circle fill="black" r="6.5" clip-path="url(#clipPath9)" cx="151.5" cy="149.5" stroke="none"/>
            <rect x="570" y="261" clip-path="url(#clipPath10)" fill="rgb(208,223,239)" width="53" rx="7.5" ry="7.5" height="53" stroke="none"/>
            <rect x="570" y="261" clip-path="url(#clipPath10)" fill="none" width="52" rx="7.5" ry="7.5" height="52"/>
            <text x="583" y="280" clip-path="url(#clipPath11)" fill="black" stroke="none" font-weight="bold" xml:space="preserve">One</text>
            <rect x="140" y="195" clip-path="url(#clipPath12)" fill="rgb(208,223,239)" width="60" rx="7.5" ry="7.5" height="53" stroke="none"/>
            <rect x="140" y="195" clip-path="url(#clipPath12)" fill="none" width="59" rx="7.5" ry="7.5" height="52"/>
            <text x="150" y="214" clip-path="url(#clipPath13)" fill="black" stroke="none" font-weight="bold" xml:space="preserve">Initial</text>
            <rect x="570" y="150" clip-path="url(#clipPath14)" fill="rgb(208,223,239)" width="53" rx="7.5" ry="7.5" height="53" stroke="none"/>
            <rect x="570" y="150" clip-path="url(#clipPath14)" fill="none" width="52" rx="7.5" ry="7.5" height="52"/>
            <text x="581" y="169" clip-path="url(#clipPath15)" fill="black" stroke="none" font-weight="bold" xml:space="preserve">Zero</text>
            <rect x="801" y="86" clip-path="url(#clipPath16)" fill="rgb(250,250,250)" width="341" height="321" stroke="none"/>
            <rect fill="none" x="801" width="340" height="320" y="86" clip-path="url(#clipPath16)"/>
            <text fill="black" x="812" xml:space="preserve" y="105" clip-path="url(#clipPath17)" stroke="none">r2</text>
            <rect x="922" y="198" clip-path="url(#clipPath18)" fill="rgb(208,223,239)" width="40" rx="7.5" ry="7.5" height="53" stroke="none"/>
            <rect x="922" y="198" clip-path="url(#clipPath18)" fill="none" width="39" rx="7.5" ry="7.5" height="52"/>
            <text x="938" y="217" clip-path="url(#clipPath19)" fill="black" stroke="none" font-weight="bold" xml:space="preserve">S</text>
            <circle fill="black" r="6.5" clip-path="url(#clipPath20)" cx="940.5" cy="168.5" stroke="none"/>
            <rect x="922" y="310" clip-path="url(#clipPath21)" fill="rgb(208,223,239)" width="40" rx="7.5" ry="7.5" height="53" stroke="none"/>
            <rect x="922" y="310" clip-path="url(#clipPath21)" fill="none" width="39" rx="7.5" ry="7.5" height="52"/>
            <text x="938" y="329" clip-path="url(#clipPath22)" fill="black" stroke="none" font-weight="bold" xml:space="preserve">T</text>
            <circle fill="black" r="6.5" clip-path="url(#clipPath23)" cx="61.5" cy="86.5" stroke="none"/>
            <circle fill="white" r="4" clip-path="url(#clipPath24)" cx="112" cy="91" stroke="none"/>
        </g>
        <g font-size="10px" stroke-width="1.1" font-family="'Arial'" stroke-linecap="butt">
            <text x="110" xml:space="preserve" y="95" clip-path="url(#clipPath24)" stroke="none">1</text>
        </g>
        <g fill="white" stroke-width="1.1" font-family="'Segoe UI'" stroke-linecap="butt" stroke="white">
            <circle r="4" clip-path="url(#clipPath25)" cx="806" cy="91" stroke="none"/>
        </g>
        <g font-size="10px" stroke-width="1.1" font-family="'Arial'" stroke-linecap="butt">
            <text x="804" xml:space="preserve" y="95" clip-path="url(#clipPath25)" stroke="none">2</text>
        </g>
        <g fill="rgb(64,64,64)" stroke-width="1.1" font-family="'Verdana'" stroke-linecap="butt" stroke="rgb(64,64,64)">
            <line y2="218" fill="none" x1="422" clip-path="url(#clipPath26)" x2="495" y1="218"/>
            <line y2="173" fill="none" x1="495" clip-path="url(#clipPath26)" x2="495" y1="218"/>
            <line y2="173" fill="none" x1="495" clip-path="url(#clipPath26)" x2="570" y1="173"/>
            <polygon points=" 570 173 563 176 563 170" clip-path="url(#clipPath27)" stroke="none"/>
            <polygon fill="none" points=" 570 173 563 176 563 170" clip-path="url(#clipPath27)"/>
            <text fill="black" x="471" xml:space="preserve" y="164" clip-path="url(#clipPath28)" stroke="none">[x==0]</text>
            <ellipse clip-path="url(#clipPath29)" fill="white" rx="5" cx="427" ry="5.5" cy="217.5" stroke="none"/>
        </g>
        <g font-size="10px" stroke-width="1.1" font-family="'Arial'" stroke-linecap="butt">
            <text x="425" xml:space="preserve" y="222" clip-path="url(#clipPath29)" stroke="none">1</text>
        </g>
        <g fill="rgb(64,64,64)" stroke-width="1.1" font-family="'Verdana'" stroke-linecap="butt" stroke="rgb(64,64,64)">
            <line y2="198" fill="none" x1="942" clip-path="url(#clipPath26)" x2="942" y1="175"/>
            <polygon points=" 942 198 939 191 945 191" clip-path="url(#clipPath30)" stroke="none"/>
            <polygon fill="none" points=" 942 198 939 191 945 191" clip-path="url(#clipPath30)"/>
            <line y2="310" fill="none" x1="941" clip-path="url(#clipPath26)" x2="941" y1="251"/>
            <polygon points=" 941 310 938 303 944 303" clip-path="url(#clipPath31)" stroke="none"/>
            <polygon fill="none" points=" 941 310 938 303 944 303" clip-path="url(#clipPath31)"/>
            <text x="874" y="285" clip-path="url(#clipPath32)" fill="rgb(14,48,131)" stroke="none" font-weight="bold" xml:space="preserve">after</text>
            <text fill="black" x="906" xml:space="preserve" y="285" clip-path="url(#clipPath32)" stroke="none"> 5</text>
            <text x="918" y="285" clip-path="url(#clipPath32)" fill="rgb(14,48,131)" stroke="none" font-weight="bold" xml:space="preserve">s</text>
            <line y2="221" fill="none" x1="200" clip-path="url(#clipPath26)" x2="354" y1="221"/>
            <polygon points=" 354 221 347 224 347 218" clip-path="url(#clipPath33)" stroke="none"/>
            <polygon fill="none" points=" 354 221 347 224 347 218" clip-path="url(#clipPath33)"/>
            <text x="230" y="210" clip-path="url(#clipPath34)" fill="rgb(14,48,131)" stroke="none" font-weight="bold" xml:space="preserve">after</text>
            <text fill="black" x="262" xml:space="preserve" y="210" clip-path="url(#clipPath34)" stroke="none"> 1</text>
            <text x="274" y="210" clip-path="url(#clipPath34)" fill="rgb(14,48,131)" stroke="none" font-weight="bold" xml:space="preserve">s</text>
            <text fill="black" x="281" xml:space="preserve" y="210" clip-path="url(#clipPath34)" stroke="none"> / x += 1</text>
            <line y2="82" fill="none" x1="67" clip-path="url(#clipPath26)" x2="101" y1="82"/>
            <polygon points=" 101 82 94 85 94 79" clip-path="url(#clipPath35)" stroke="none"/>
            <polygon fill="none" points=" 101 82 94 85 94 79" clip-path="url(#clipPath35)"/>
            <line y2="195" fill="none" x1="153" clip-path="url(#clipPath26)" x2="153" y1="156"/>
            <polygon points=" 153 195 150 188 156 188" clip-path="url(#clipPath36)" stroke="none"/>
            <polygon fill="none" points=" 153 195 150 188 156 188" clip-path="url(#clipPath36)"/>
            <line y2="238" fill="none" x1="422" clip-path="url(#clipPath26)" x2="497" y1="238"/>
            <line y2="286" fill="none" x1="497" clip-path="url(#clipPath26)" x2="497" y1="238"/>
            <line y2="286" fill="none" x1="497" clip-path="url(#clipPath26)" x2="570" y1="286"/>
            <polygon points=" 570 286 563 289 563 283" clip-path="url(#clipPath37)" stroke="none"/>
            <polygon fill="none" points=" 570 286 563 289 563 283" clip-path="url(#clipPath37)"/>
            <text fill="black" x="474" xml:space="preserve" y="312" clip-path="url(#clipPath38)" stroke="none">[x==1]</text>
            <ellipse clip-path="url(#clipPath39)" fill="white" rx="5" cx="427" ry="5.5" cy="237.5" stroke="none"/>
        </g>
        <g font-size="10px" stroke-width="1.1" font-family="'Arial'" stroke-linecap="butt">
            <text x="425" xml:space="preserve" y="242" clip-path="url(#clipPath39)" stroke="none">2</text>
        </g>
    </g>
</svg>
