<?xml version="1.0" encoding="UTF-8"?><svg xmlns="http://www.w3.org/2000/svg" xmlns:xlink="http://www.w3.org/1999/xlink" stroke-dasharray="none" shape-rendering="auto" font-family="'Dialog'" width="963" text-rendering="auto" fill-opacity="1" contentScriptType="text/ecmascript" color-interpolation="auto" color-rendering="auto" preserveAspectRatio="xMidYMid meet" font-size="12px" viewBox="0 0 963 400" fill="black" stroke="black" image-rendering="auto" stroke-miterlimit="10" zoomAndPan="magnify" version="1.0" stroke-linecap="square" stroke-linejoin="miter" contentStyleType="text/css" font-style="normal" height="400" stroke-width="1" stroke-dashoffset="0" font-weight="normal" stroke-opacity="1">
    <!--Generated by the Batik Graphics2D SVG Generator-->
    <defs id="genericDefs"/>
    <g>
        <defs id="defs1">
            <clipPath clipPathUnits="userSpaceOnUse" id="clipPath1">
                <path d="M9 9 L954 9 L954 391 L9 391 L9 9 Z"/>
            </clipPath>
            <clipPath clipPathUnits="userSpaceOnUse" id="clipPath2">
                <path d="M20 15 L96 15 L96 31 L20 31 L20 15 Z"/>
            </clipPath>
            <clipPath clipPathUnits="userSpaceOnUse" id="clipPath3">
                <path d="M75 63 L905 63 L905 354 L75 354 L75 63 Z"/>
            </clipPath>
            <clipPath clipPathUnits="userSpaceOnUse" id="clipPath4">
                <path d="M435 69 L546 69 L546 85 L435 85 L435 69 Z"/>
            </clipPath>
            <clipPath clipPathUnits="userSpaceOnUse" id="clipPath5">
                <path d="M81 102 L485 102 L485 349 L81 349 L81 102 Z"/>
            </clipPath>
            <clipPath clipPathUnits="userSpaceOnUse" id="clipPath6">
                <path d="M92 108 L107 108 L107 124 L92 124 L92 108 Z"/>
            </clipPath>
            <clipPath clipPathUnits="userSpaceOnUse" id="clipPath7">
                <path d="M132 193 L233 193 L233 248 L132 248 L132 193 Z"/>
            </clipPath>
            <clipPath clipPathUnits="userSpaceOnUse" id="clipPath8">
                <path d="M159 199 L206 199 L206 215 L159 215 L159 199 Z"/>
            </clipPath>
            <clipPath clipPathUnits="userSpaceOnUse" id="clipPath9">
                <path d="M137 131 L154 131 L154 148 L137 148 L137 131 Z"/>
            </clipPath>
            <clipPath clipPathUnits="userSpaceOnUse" id="clipPath10">
                <path d="M482 102 L900 102 L900 349 L482 349 L482 102 Z"/>
            </clipPath>
            <clipPath clipPathUnits="userSpaceOnUse" id="clipPath11">
                <path d="M493 108 L508 108 L508 124 L493 124 L493 108 Z"/>
            </clipPath>
            <clipPath clipPathUnits="userSpaceOnUse" id="clipPath12">
                <path d="M588 193 L648 193 L648 248 L588 248 L588 193 Z"/>
            </clipPath>
            <clipPath clipPathUnits="userSpaceOnUse" id="clipPath13">
                <path d="M595 199 L642 199 L642 215 L595 215 L595 199 Z"/>
            </clipPath>
            <clipPath clipPathUnits="userSpaceOnUse" id="clipPath14">
                <path d="M609 147 L626 147 L626 164 L609 164 L609 147 Z"/>
            </clipPath>
            <clipPath clipPathUnits="userSpaceOnUse" id="clipPath15">
                <path d="M42 153 L59 153 L59 170 L42 170 L42 153 Z"/>
            </clipPath>
            <clipPath clipPathUnits="userSpaceOnUse" id="clipPath16">
                <path d="M82 103 L94 103 L94 115 L82 115 L82 103 Z"/>
            </clipPath>
            <clipPath clipPathUnits="userSpaceOnUse" id="clipPath17">
                <path d="M483 103 L495 103 L495 115 L483 115 L483 103 Z"/>
            </clipPath>
            <clipPath clipPathUnits="userSpaceOnUse" id="clipPath18">
                <path d="M-1 -1 L964 -1 L964 401 L-1 401 L-1 -1 Z"/>
            </clipPath>
            <clipPath clipPathUnits="userSpaceOnUse" id="clipPath19">
                <path d="M611 186 L620 186 L620 196 L611 196 L611 186 Z"/>
            </clipPath>
            <clipPath clipPathUnits="userSpaceOnUse" id="clipPath20">
                <path d="M629 246 L638 246 L638 256 L629 256 L629 246 Z"/>
            </clipPath>
            <clipPath clipPathUnits="userSpaceOnUse" id="clipPath21">
                <path d="M643 313 L753 313 L753 329 L643 329 L643 313 Z"/>
            </clipPath>
            <clipPath clipPathUnits="userSpaceOnUse" id="clipPath22">
                <path d="M204 246 L213 246 L213 256 L204 256 L204 246 Z"/>
            </clipPath>
            <clipPath clipPathUnits="userSpaceOnUse" id="clipPath23">
                <path d="M222 317 L324 317 L324 333 L222 333 L222 317 Z"/>
            </clipPath>
            <clipPath clipPathUnits="userSpaceOnUse" id="clipPath24">
                <path d="M139 186 L148 186 L148 196 L139 196 L139 186 Z"/>
            </clipPath>
            <clipPath clipPathUnits="userSpaceOnUse" id="clipPath25">
                <path d="M68 159 L78 159 L78 168 L68 168 L68 159 Z"/>
            </clipPath>
        </defs>
        <g fill="rgb(250,250,250)" stroke-miterlimit="0" stroke-width="0" font-family="'Verdana'" stroke="rgb(250,250,250)" stroke-linejoin="round">
            <rect x="10" width="943" height="380" y="10" clip-path="url(#clipPath1)" stroke="none"/>
        </g>
        <g fill="silver" stroke-width="1.1" font-family="'Verdana'" stroke-linecap="butt" stroke="silver">
            <rect fill="none" x="10" width="942" height="379" y="10" clip-path="url(#clipPath1)"/>
            <text fill="black" x="21" xml:space="preserve" y="29" clip-path="url(#clipPath2)" stroke="none">main region</text>
            <rect x="76" y="64" clip-path="url(#clipPath3)" fill="rgb(208,223,239)" width="828" rx="7.5" ry="7.5" height="289" stroke="none"/>
            <rect x="76" y="64" clip-path="url(#clipPath3)" fill="none" width="827" rx="7.5" ry="7.5" height="288"/>
            <text x="436" y="83" clip-path="url(#clipPath4)" fill="black" stroke="none" font-weight="bold" xml:space="preserve">OrthogonalState</text>
            <rect x="82" y="103" clip-path="url(#clipPath5)" fill="rgb(250,250,250)" width="402" height="245" stroke="none"/>
            <rect fill="none" x="82" width="401" height="244" y="103" clip-path="url(#clipPath5)"/>
            <text fill="black" x="93" xml:space="preserve" y="122" clip-path="url(#clipPath6)" stroke="none">r1</text>
            <rect x="133" y="194" clip-path="url(#clipPath7)" fill="rgb(208,223,239)" width="99" rx="7.5" ry="7.5" height="53" stroke="none"/>
            <rect x="133" y="194" clip-path="url(#clipPath7)" fill="none" width="98" rx="7.5" ry="7.5" height="52"/>
            <text x="160" y="213" clip-path="url(#clipPath8)" fill="black" stroke="none" font-weight="bold" xml:space="preserve">StateA</text>
            <circle fill="black" r="6.5" clip-path="url(#clipPath9)" cx="144.5" cy="138.5" stroke="none"/>
            <rect x="483" y="103" clip-path="url(#clipPath10)" fill="rgb(250,250,250)" width="416" height="245" stroke="none"/>
            <rect fill="none" x="483" width="415" height="244" y="103" clip-path="url(#clipPath10)"/>
            <text fill="black" x="494" xml:space="preserve" y="122" clip-path="url(#clipPath11)" stroke="none">r2</text>
            <rect x="589" y="194" clip-path="url(#clipPath12)" fill="rgb(208,223,239)" width="58" rx="7.5" ry="7.5" height="53" stroke="none"/>
            <rect x="589" y="194" clip-path="url(#clipPath12)" fill="none" width="57" rx="7.5" ry="7.5" height="52"/>
            <text x="596" y="213" clip-path="url(#clipPath13)" fill="black" stroke="none" font-weight="bold" xml:space="preserve">StateB</text>
            <circle fill="black" r="6.5" clip-path="url(#clipPath14)" cx="616.5" cy="154.5" stroke="none"/>
            <circle fill="black" r="6.5" clip-path="url(#clipPath15)" cx="49.5" cy="160.5" stroke="none"/>
            <circle fill="white" r="4" clip-path="url(#clipPath16)" cx="87" cy="108" stroke="none"/>
        </g>
        <g font-size="10px" stroke-width="1.1" font-family="'Arial'" stroke-linecap="butt">
            <text x="85" xml:space="preserve" y="112" clip-path="url(#clipPath16)" stroke="none">1</text>
        </g>
        <g fill="white" stroke-width="1.1" font-family="'Segoe UI'" stroke-linecap="butt" stroke="white">
            <circle r="4" clip-path="url(#clipPath17)" cx="488" cy="108" stroke="none"/>
        </g>
        <g font-size="10px" stroke-width="1.1" font-family="'Arial'" stroke-linecap="butt">
            <text x="486" xml:space="preserve" y="112" clip-path="url(#clipPath17)" stroke="none">2</text>
        </g>
        <g fill="rgb(64,64,64)" stroke-width="1.1" font-family="'Verdana'" stroke-linecap="butt" stroke="rgb(64,64,64)">
            <line y2="194" fill="none" x1="615" clip-path="url(#clipPath18)" x2="615" y1="161"/>
            <polygon points=" 615 194 612 187 618 187" clip-path="url(#clipPath19)" stroke="none"/>
            <polygon fill="none" points=" 615 194 612 187 618 187" clip-path="url(#clipPath19)"/>
            <line y2="233" fill="none" x1="647" clip-path="url(#clipPath18)" x2="709" y1="233"/>
            <line y2="309" fill="none" x1="709" clip-path="url(#clipPath18)" x2="709" y1="233"/>
            <line y2="309" fill="none" x1="709" clip-path="url(#clipPath18)" x2="633" y1="309"/>
            <line y2="247" fill="none" x1="633" clip-path="url(#clipPath18)" x2="633" y1="309"/>
            <polygon points=" 633 247 636 254 630 254" clip-path="url(#clipPath20)" stroke="none"/>
            <polygon fill="none" points=" 633 247 636 254 630 254" clip-path="url(#clipPath20)"/>
            <text x="644" y="327" clip-path="url(#clipPath21)" fill="rgb(14,48,131)" stroke="none" font-weight="bold" xml:space="preserve">after</text>
            <text fill="black" x="676" xml:space="preserve" y="327" clip-path="url(#clipPath21)" stroke="none"> 1</text>
            <text x="688" y="327" clip-path="url(#clipPath21)" fill="rgb(14,48,131)" stroke="none" font-weight="bold" xml:space="preserve">s</text>
            <text fill="black" x="695" xml:space="preserve" y="327" clip-path="url(#clipPath21)" stroke="none"> / </text>
            <text x="708" y="327" clip-path="url(#clipPath21)" fill="rgb(14,48,131)" stroke="none" font-weight="bold" xml:space="preserve">raise</text>
            <text fill="black" x="741" xml:space="preserve" y="327" clip-path="url(#clipPath21)" stroke="none"> y</text>
            <line y2="233" fill="none" x1="232" clip-path="url(#clipPath18)" x2="294" y1="233"/>
            <line y2="309" fill="none" x1="294" clip-path="url(#clipPath18)" x2="294" y1="233"/>
            <line y2="309" fill="none" x1="294" clip-path="url(#clipPath18)" x2="208" y1="309"/>
            <line y2="247" fill="none" x1="208" clip-path="url(#clipPath18)" x2="208" y1="309"/>
            <polygon points=" 208 247 211 254 205 254" clip-path="url(#clipPath22)" stroke="none"/>
            <polygon fill="none" points=" 208 247 211 254 205 254" clip-path="url(#clipPath22)"/>
            <text fill="black" x="223" xml:space="preserve" y="331" clip-path="url(#clipPath23)" stroke="none">[v==0] / </text>
            <text x="279" y="331" clip-path="url(#clipPath23)" fill="rgb(14,48,131)" stroke="none" font-weight="bold" xml:space="preserve">raise</text>
            <text fill="black" x="312" xml:space="preserve" y="331" clip-path="url(#clipPath23)" stroke="none"> x</text>
            <line y2="194" fill="none" x1="143" clip-path="url(#clipPath18)" x2="143" y1="145"/>
            <polygon points=" 143 194 140 187 146 187" clip-path="url(#clipPath24)" stroke="none"/>
            <polygon fill="none" points=" 143 194 140 187 146 187" clip-path="url(#clipPath24)"/>
            <line y2="163" fill="none" x1="56" clip-path="url(#clipPath18)" x2="76" y1="163"/>
            <polygon points=" 76 163 69 166 69 160" clip-path="url(#clipPath25)" stroke="none"/>
            <polygon fill="none" points=" 76 163 69 166 69 160" clip-path="url(#clipPath25)"/>
        </g>
    </g>
</svg>
