<?xml version="1.0" encoding="UTF-8"?><svg xmlns="http://www.w3.org/2000/svg" xmlns:xlink="http://www.w3.org/1999/xlink" stroke-dasharray="none" shape-rendering="auto" font-family="'Dialog'" width="1561" text-rendering="auto" fill-opacity="1" contentScriptType="text/ecmascript" color-interpolation="auto" color-rendering="auto" preserveAspectRatio="xMidYMid meet" font-size="12px" viewBox="0 0 1561 1222" fill="black" stroke="black" image-rendering="auto" stroke-miterlimit="10" zoomAndPan="magnify" version="1.0" stroke-linecap="square" stroke-linejoin="miter" contentStyleType="text/css" font-style="normal" height="1222" stroke-width="1" stroke-dashoffset="0" font-weight="normal" stroke-opacity="1">
    <!--Generated by the Batik Graphics2D SVG Generator-->
    <defs id="genericDefs"/>
    <g>
        <defs id="defs1">
            <clipPath clipPathUnits="userSpaceOnUse" id="clipPath1">
                <path d="M9 9 L1552 9 L1552 1213 L9 1213 L9 9 Z"/>
            </clipPath>
            <clipPath clipPathUnits="userSpaceOnUse" id="clipPath2">
                <path d="M20 15 L96 15 L96 31 L20 31 L20 15 Z"/>
            </clipPath>
            <clipPath clipPathUnits="userSpaceOnUse" id="clipPath3">
                <path d="M768 37 L785 37 L785 54 L768 54 L768 37 Z"/>
            </clipPath>
            <clipPath clipPathUnits="userSpaceOnUse" id="clipPath4">
                <path d="M41 95 L1513 95 L1513 1177 L41 1177 L41 95 Z"/>
            </clipPath>
            <clipPath clipPathUnits="userSpaceOnUse" id="clipPath5">
                <path d="M738 101 L817 101 L817 117 L738 117 L738 101 Z"/>
            </clipPath>
            <clipPath clipPathUnits="userSpaceOnUse" id="clipPath6">
                <path d="M47 134 L876 134 L876 1172 L47 1172 L47 134 Z"/>
            </clipPath>
            <clipPath clipPathUnits="userSpaceOnUse" id="clipPath7">
                <path d="M58 140 L188 140 L188 156 L58 156 L58 140 Z"/>
            </clipPath>
            <clipPath clipPathUnits="userSpaceOnUse" id="clipPath8">
                <path d="M283 805 L620 805 L620 1136 L283 1136 L283 805 Z"/>
            </clipPath>
            <clipPath clipPathUnits="userSpaceOnUse" id="clipPath9">
                <path d="M371 811 L532 811 L532 827 L371 827 L371 811 Z"/>
            </clipPath>
            <clipPath clipPathUnits="userSpaceOnUse" id="clipPath10">
                <path d="M296 828 L467 828 L467 844 L296 844 L296 828 Z"/>
            </clipPath>
            <clipPath clipPathUnits="userSpaceOnUse" id="clipPath11">
                <path d="M289 844 L615 844 L615 1131 L289 1131 L289 844 Z"/>
            </clipPath>
            <clipPath clipPathUnits="userSpaceOnUse" id="clipPath12">
                <path d="M300 850 L315 850 L315 866 L300 866 L300 850 Z"/>
            </clipPath>
            <clipPath clipPathUnits="userSpaceOnUse" id="clipPath13">
                <path d="M446 872 L463 872 L463 889 L446 889 L446 872 Z"/>
            </clipPath>
            <clipPath clipPathUnits="userSpaceOnUse" id="clipPath14">
                <path d="M339 920 L567 920 L567 975 L339 975 L339 920 Z"/>
            </clipPath>
            <clipPath clipPathUnits="userSpaceOnUse" id="clipPath15">
                <path d="M419 926 L487 926 L487 942 L419 942 L419 926 Z"/>
            </clipPath>
            <clipPath clipPathUnits="userSpaceOnUse" id="clipPath16">
                <path d="M352 943 L529 943 L529 959 L352 959 L352 943 Z"/>
            </clipPath>
            <clipPath clipPathUnits="userSpaceOnUse" id="clipPath17">
                <path d="M340 1036 L567 1036 L567 1091 L340 1091 L340 1036 Z"/>
            </clipPath>
            <clipPath clipPathUnits="userSpaceOnUse" id="clipPath18">
                <path d="M419 1042 L489 1042 L489 1058 L419 1058 L419 1042 Z"/>
            </clipPath>
            <clipPath clipPathUnits="userSpaceOnUse" id="clipPath19">
                <path d="M353 1059 L534 1059 L534 1075 L353 1075 L353 1059 Z"/>
            </clipPath>
            <clipPath clipPathUnits="userSpaceOnUse" id="clipPath20">
                <path d="M81 225 L814 225 L814 754 L81 754 L81 225 Z"/>
            </clipPath>
            <clipPath clipPathUnits="userSpaceOnUse" id="clipPath21">
                <path d="M393 231 L502 231 L502 247 L393 247 L393 231 Z"/>
            </clipPath>
            <clipPath clipPathUnits="userSpaceOnUse" id="clipPath22">
                <path d="M87 264 L809 264 L809 749 L87 749 L87 264 Z"/>
            </clipPath>
            <clipPath clipPathUnits="userSpaceOnUse" id="clipPath23">
                <path d="M98 270 L113 270 L113 286 L98 286 L98 270 Z"/>
            </clipPath>
            <clipPath clipPathUnits="userSpaceOnUse" id="clipPath24">
                <path d="M157 345 L349 345 L349 416 L157 416 L157 345 Z"/>
            </clipPath>
            <clipPath clipPathUnits="userSpaceOnUse" id="clipPath25">
                <path d="M241 351 L266 351 L266 367 L241 367 L241 351 Z"/>
            </clipPath>
            <clipPath clipPathUnits="userSpaceOnUse" id="clipPath26">
                <path d="M170 368 L326 368 L326 398 L170 398 L170 368 Z"/>
            </clipPath>
            <clipPath clipPathUnits="userSpaceOnUse" id="clipPath27">
                <path d="M366 473 L592 473 L592 725 L366 725 L366 473 Z"/>
            </clipPath>
            <clipPath clipPathUnits="userSpaceOnUse" id="clipPath28">
                <path d="M459 479 L500 479 L500 495 L459 495 L459 479 Z"/>
            </clipPath>
            <clipPath clipPathUnits="userSpaceOnUse" id="clipPath29">
                <path d="M379 496 L549 496 L549 526 L379 526 L379 496 Z"/>
            </clipPath>
            <clipPath clipPathUnits="userSpaceOnUse" id="clipPath30">
                <path d="M372 526 L587 526 L587 720 L372 720 L372 526 Z"/>
            </clipPath>
            <clipPath clipPathUnits="userSpaceOnUse" id="clipPath31">
                <path d="M383 532 L441 532 L441 548 L383 548 L383 532 Z"/>
            </clipPath>
            <clipPath clipPathUnits="userSpaceOnUse" id="clipPath32">
                <path d="M413 589 L551 589 L551 644 L413 644 L413 589 Z"/>
            </clipPath>
            <clipPath clipPathUnits="userSpaceOnUse" id="clipPath33">
                <path d="M422 595 L543 595 L543 611 L422 611 L422 595 Z"/>
            </clipPath>
            <clipPath clipPathUnits="userSpaceOnUse" id="clipPath34">
                <path d="M473 554 L490 554 L490 571 L473 571 L473 554 Z"/>
            </clipPath>
            <clipPath clipPathUnits="userSpaceOnUse" id="clipPath35">
                <path d="M246 298 L263 298 L263 315 L246 315 L246 298 Z"/>
            </clipPath>
            <clipPath clipPathUnits="userSpaceOnUse" id="clipPath36">
                <path d="M535 345 L749 345 L749 416 L535 416 L535 345 Z"/>
            </clipPath>
            <clipPath clipPathUnits="userSpaceOnUse" id="clipPath37">
                <path d="M619 351 L665 351 L665 367 L619 367 L619 351 Z"/>
            </clipPath>
            <clipPath clipPathUnits="userSpaceOnUse" id="clipPath38">
                <path d="M548 368 L723 368 L723 398 L548 398 L548 368 Z"/>
            </clipPath>
            <clipPath clipPathUnits="userSpaceOnUse" id="clipPath39">
                <path d="M439 167 L456 167 L456 184 L439 184 L439 167 Z"/>
            </clipPath>
            <clipPath clipPathUnits="userSpaceOnUse" id="clipPath40">
                <path d="M873 134 L1508 134 L1508 1172 L873 1172 L873 134 Z"/>
            </clipPath>
            <clipPath clipPathUnits="userSpaceOnUse" id="clipPath41">
                <path d="M884 140 L1023 140 L1023 156 L884 156 L884 140 Z"/>
            </clipPath>
            <clipPath clipPathUnits="userSpaceOnUse" id="clipPath42">
                <path d="M1152 365 L1169 365 L1169 382 L1152 382 L1152 365 Z"/>
            </clipPath>
            <clipPath clipPathUnits="userSpaceOnUse" id="clipPath43">
                <path d="M1073 424 L1249 424 L1249 479 L1073 479 L1073 424 Z"/>
            </clipPath>
            <clipPath clipPathUnits="userSpaceOnUse" id="clipPath44">
                <path d="M1085 430 L1237 430 L1237 446 L1085 446 L1085 430 Z"/>
            </clipPath>
            <clipPath clipPathUnits="userSpaceOnUse" id="clipPath45">
                <path d="M1013 591 L1188 591 L1188 646 L1013 646 L1013 591 Z"/>
            </clipPath>
            <clipPath clipPathUnits="userSpaceOnUse" id="clipPath46">
                <path d="M1055 597 L1147 597 L1147 613 L1055 613 L1055 597 Z"/>
            </clipPath>
            <clipPath clipPathUnits="userSpaceOnUse" id="clipPath47">
                <path d="M1268 590 L1445 590 L1445 645 L1268 645 L1268 590 Z"/>
            </clipPath>
            <clipPath clipPathUnits="userSpaceOnUse" id="clipPath48">
                <path d="M1313 596 L1401 596 L1401 612 L1313 612 L1313 596 Z"/>
            </clipPath>
            <clipPath clipPathUnits="userSpaceOnUse" id="clipPath49">
                <path d="M48 135 L60 135 L60 147 L48 147 L48 135 Z"/>
            </clipPath>
            <clipPath clipPathUnits="userSpaceOnUse" id="clipPath50">
                <path d="M874 135 L886 135 L886 147 L874 147 L874 135 Z"/>
            </clipPath>
            <clipPath clipPathUnits="userSpaceOnUse" id="clipPath51">
                <path d="M-1 -1 L1562 -1 L1562 1223 L-1 1223 L-1 -1 Z"/>
            </clipPath>
            <clipPath clipPathUnits="userSpaceOnUse" id="clipPath52">
                <path d="M1155 417 L1164 417 L1164 427 L1155 427 L1155 417 Z"/>
            </clipPath>
            <clipPath clipPathUnits="userSpaceOnUse" id="clipPath53">
                <path d="M476 582 L485 582 L485 592 L476 592 L476 582 Z"/>
            </clipPath>
            <clipPath clipPathUnits="userSpaceOnUse" id="clipPath54">
                <path d="M359 643 L369 643 L369 652 L359 652 L359 643 Z"/>
            </clipPath>
            <clipPath clipPathUnits="userSpaceOnUse" id="clipPath55">
                <path d="M188 619 L241 619 L241 635 L188 635 L188 619 Z"/>
            </clipPath>
            <clipPath clipPathUnits="userSpaceOnUse" id="clipPath56">
                <path d="M324 752 L333 752 L333 762 L324 762 L324 752 Z"/>
            </clipPath>
            <clipPath clipPathUnits="userSpaceOnUse" id="clipPath57">
                <path d="M262 766 L319 766 L319 782 L262 782 L262 766 Z"/>
            </clipPath>
            <clipPath clipPathUnits="userSpaceOnUse" id="clipPath58">
                <path d="M449 913 L458 913 L458 923 L449 923 L449 913 Z"/>
            </clipPath>
            <clipPath clipPathUnits="userSpaceOnUse" id="clipPath59">
                <path d="M391 1029 L400 1029 L400 1039 L391 1039 L391 1029 Z"/>
            </clipPath>
            <clipPath clipPathUnits="userSpaceOnUse" id="clipPath60">
                <path d="M300 996 L383 996 L383 1012 L300 1012 L300 996 Z"/>
            </clipPath>
            <clipPath clipPathUnits="userSpaceOnUse" id="clipPath61">
                <path d="M443 218 L452 218 L452 228 L443 228 L443 218 Z"/>
            </clipPath>
            <clipPath clipPathUnits="userSpaceOnUse" id="clipPath62">
                <path d="M1095 584 L1104 584 L1104 594 L1095 594 L1095 584 Z"/>
            </clipPath>
            <clipPath clipPathUnits="userSpaceOnUse" id="clipPath63">
                <path d="M1104 523 L1199 523 L1199 539 L1104 539 L1104 523 Z"/>
            </clipPath>
            <clipPath clipPathUnits="userSpaceOnUse" id="clipPath64">
                <path d="M347 376 L357 376 L357 385 L347 385 L347 376 Z"/>
            </clipPath>
            <clipPath clipPathUnits="userSpaceOnUse" id="clipPath65">
                <path d="M425 356 L478 356 L478 372 L425 372 L425 356 Z"/>
            </clipPath>
            <clipPath clipPathUnits="userSpaceOnUse" id="clipPath66">
                <path d="M1261 614 L1271 614 L1271 623 L1261 623 L1261 614 Z"/>
            </clipPath>
            <clipPath clipPathUnits="userSpaceOnUse" id="clipPath67">
                <path d="M1206 629 L1259 629 L1259 645 L1206 645 L1206 629 Z"/>
            </clipPath>
            <clipPath clipPathUnits="userSpaceOnUse" id="clipPath68">
                <path d="M1185 610 L1199 610 L1199 625 L1185 625 L1185 610 Z"/>
            </clipPath>
            <clipPath clipPathUnits="userSpaceOnUse" id="clipPath69">
                <path d="M563 798 L572 798 L572 808 L563 808 L563 798 Z"/>
            </clipPath>
            <clipPath clipPathUnits="userSpaceOnUse" id="clipPath70">
                <path d="M578 762 L635 762 L635 778 L578 778 L578 762 Z"/>
            </clipPath>
            <clipPath clipPathUnits="userSpaceOnUse" id="clipPath71">
                <path d="M1247 447 L1257 447 L1257 456 L1247 456 L1247 447 Z"/>
            </clipPath>
            <clipPath clipPathUnits="userSpaceOnUse" id="clipPath72">
                <path d="M1301 402 L1413 402 L1413 432 L1301 432 L1301 402 Z"/>
            </clipPath>
            <clipPath clipPathUnits="userSpaceOnUse" id="clipPath73">
                <path d="M248 338 L257 338 L257 348 L248 348 L248 338 Z"/>
            </clipPath>
            <clipPath clipPathUnits="userSpaceOnUse" id="clipPath74">
                <path d="M500 973 L509 973 L509 983 L500 983 L500 973 Z"/>
            </clipPath>
            <clipPath clipPathUnits="userSpaceOnUse" id="clipPath75">
                <path d="M511 995 L594 995 L594 1011 L511 1011 L511 995 Z"/>
            </clipPath>
            <clipPath clipPathUnits="userSpaceOnUse" id="clipPath76">
                <path d="M1066 447 L1076 447 L1076 456 L1066 456 L1066 447 Z"/>
            </clipPath>
            <clipPath clipPathUnits="userSpaceOnUse" id="clipPath77">
                <path d="M894 394 L1090 394 L1090 438 L894 438 L894 394 Z"/>
            </clipPath>
            <clipPath clipPathUnits="userSpaceOnUse" id="clipPath78">
                <path d="M1000 610 L1014 610 L1014 625 L1000 625 L1000 610 Z"/>
            </clipPath>
            <clipPath clipPathUnits="userSpaceOnUse" id="clipPath79">
                <path d="M656 414 L665 414 L665 424 L656 424 L656 414 Z"/>
            </clipPath>
            <clipPath clipPathUnits="userSpaceOnUse" id="clipPath80">
                <path d="M627 545 L680 545 L680 561 L627 561 L627 545 Z"/>
            </clipPath>
            <clipPath clipPathUnits="userSpaceOnUse" id="clipPath81">
                <path d="M747 376 L757 376 L757 385 L747 385 L747 376 Z"/>
            </clipPath>
            <clipPath clipPathUnits="userSpaceOnUse" id="clipPath82">
                <path d="M625 626 L678 626 L678 642 L625 642 L625 626 Z"/>
            </clipPath>
            <clipPath clipPathUnits="userSpaceOnUse" id="clipPath83">
                <path d="M548 608 L562 608 L562 623 L548 623 L548 608 Z"/>
            </clipPath>
            <clipPath clipPathUnits="userSpaceOnUse" id="clipPath84">
                <path d="M528 642 L537 642 L537 652 L528 652 L528 642 Z"/>
            </clipPath>
            <clipPath clipPathUnits="userSpaceOnUse" id="clipPath85">
                <path d="M391 691 L573 691 L573 707 L391 707 L391 691 Z"/>
            </clipPath>
            <clipPath clipPathUnits="userSpaceOnUse" id="clipPath86">
                <path d="M425 641 L439 641 L439 656 L425 656 L425 641 Z"/>
            </clipPath>
            <clipPath clipPathUnits="userSpaceOnUse" id="clipPath87">
                <path d="M772 88 L781 88 L781 98 L772 98 L772 88 Z"/>
            </clipPath>
        </defs>
        <g fill="rgb(250,250,250)" stroke-miterlimit="0" stroke-width="0" font-family="'Verdana'" stroke="rgb(250,250,250)" stroke-linejoin="round">
            <rect x="10" width="1541" height="1202" y="10" clip-path="url(#clipPath1)" stroke="none"/>
        </g>
        <g fill="silver" stroke-width="1.1" font-family="'Verdana'" stroke-linecap="butt" stroke="silver">
            <rect fill="none" x="10" width="1540" height="1201" y="10" clip-path="url(#clipPath1)"/>
            <text fill="black" x="21" xml:space="preserve" y="29" clip-path="url(#clipPath2)" stroke="none">main region</text>
            <circle fill="black" r="6.5" clip-path="url(#clipPath3)" cx="775.5" cy="44.5" stroke="none"/>
            <rect x="42" y="96" clip-path="url(#clipPath4)" fill="rgb(208,223,239)" width="1470" rx="7.5" ry="7.5" height="1080" stroke="none"/>
            <rect x="42" y="96" clip-path="url(#clipPath4)" fill="none" width="1469" rx="7.5" ry="7.5" height="1079"/>
            <text x="739" y="115" clip-path="url(#clipPath5)" fill="black" stroke="none" font-weight="bold" xml:space="preserve">TrafficLight</text>
            <rect x="48" y="135" clip-path="url(#clipPath6)" fill="rgb(250,250,250)" width="827" height="1036" stroke="none"/>
            <rect fill="none" x="48" width="826" height="1035" y="135" clip-path="url(#clipPath6)"/>
            <text fill="black" x="59" xml:space="preserve" y="154" clip-path="url(#clipPath7)" stroke="none">trafficLightsHandling</text>
            <rect x="284" y="806" clip-path="url(#clipPath8)" fill="rgb(208,223,239)" width="335" rx="7.5" ry="7.5" height="329" stroke="none"/>
            <rect x="284" y="806" clip-path="url(#clipPath8)" fill="none" width="334" rx="7.5" ry="7.5" height="328"/>
            <text x="372" y="825" clip-path="url(#clipPath9)" fill="black" stroke="none" font-weight="bold" xml:space="preserve">PoliceInterruptBehavior</text>
            <text x="297" y="842" clip-path="url(#clipPath10)" fill="rgb(14,48,131)" stroke="none" font-weight="bold" xml:space="preserve">exit</text>
            <text fill="black" x="322" xml:space="preserve" y="842" clip-path="url(#clipPath10)" stroke="none"> / </text>
            <text x="335" y="842" clip-path="url(#clipPath10)" fill="rgb(14,48,131)" stroke="none" font-weight="bold" xml:space="preserve">raise</text>
            <text fill="black" x="365" xml:space="preserve" y="842" clip-path="url(#clipPath10)" stroke="none"> setYellow: false</text>
            <rect x="290" y="845" clip-path="url(#clipPath11)" fill="rgb(250,250,250)" width="324" height="285" stroke="none"/>
            <rect fill="none" x="290" width="323" height="284" y="845" clip-path="url(#clipPath11)"/>
            <text fill="black" x="301" xml:space="preserve" y="864" clip-path="url(#clipPath12)" stroke="none">r1</text>
            <circle fill="black" r="6.5" clip-path="url(#clipPath13)" cx="453.5" cy="879.5" stroke="none"/>
            <rect x="340" y="921" clip-path="url(#clipPath14)" fill="rgb(208,223,239)" width="226" rx="7.5" ry="7.5" height="53" stroke="none"/>
            <rect x="340" y="921" clip-path="url(#clipPath14)" fill="none" width="225" rx="7.5" ry="7.5" height="52"/>
            <text x="420" y="940" clip-path="url(#clipPath15)" fill="black" stroke="none" font-weight="bold" xml:space="preserve">YellowOn</text>
            <text x="353" y="957" clip-path="url(#clipPath16)" fill="rgb(14,48,131)" stroke="none" font-weight="bold" xml:space="preserve">entry</text>
            <text fill="black" x="387" xml:space="preserve" y="957" clip-path="url(#clipPath16)" stroke="none"> / </text>
            <text x="400" y="957" clip-path="url(#clipPath16)" fill="rgb(14,48,131)" stroke="none" font-weight="bold" xml:space="preserve">raise</text>
            <text fill="black" x="430" xml:space="preserve" y="957" clip-path="url(#clipPath16)" stroke="none"> setYellow: true</text>
            <rect x="341" y="1037" clip-path="url(#clipPath17)" fill="rgb(208,223,239)" width="225" rx="7.5" ry="7.5" height="53" stroke="none"/>
            <rect x="341" y="1037" clip-path="url(#clipPath17)" fill="none" width="224" rx="7.5" ry="7.5" height="52"/>
            <text x="420" y="1056" clip-path="url(#clipPath18)" fill="black" stroke="none" font-weight="bold" xml:space="preserve">YellowOff</text>
            <text x="354" y="1073" clip-path="url(#clipPath19)" fill="rgb(14,48,131)" stroke="none" font-weight="bold" xml:space="preserve">entry</text>
            <text fill="black" x="388" xml:space="preserve" y="1073" clip-path="url(#clipPath19)" stroke="none"> / </text>
            <text x="401" y="1073" clip-path="url(#clipPath19)" fill="rgb(14,48,131)" stroke="none" font-weight="bold" xml:space="preserve">raise</text>
            <text fill="black" x="431" xml:space="preserve" y="1073" clip-path="url(#clipPath19)" stroke="none"> setYellow: false</text>
            <rect x="82" y="226" clip-path="url(#clipPath20)" fill="rgb(208,223,239)" width="731" rx="7.5" ry="7.5" height="527" stroke="none"/>
            <rect x="82" y="226" clip-path="url(#clipPath20)" fill="none" width="730" rx="7.5" ry="7.5" height="526"/>
            <text x="394" y="245" clip-path="url(#clipPath21)" fill="black" stroke="none" font-weight="bold" xml:space="preserve">NormalBehavior</text>
            <rect x="88" y="265" clip-path="url(#clipPath22)" fill="rgb(250,250,250)" width="720" height="483" stroke="none"/>
            <rect fill="none" x="88" width="719" height="482" y="265" clip-path="url(#clipPath22)"/>
            <text fill="black" x="99" xml:space="preserve" y="284" clip-path="url(#clipPath23)" stroke="none">r1</text>
            <rect x="158" y="346" clip-path="url(#clipPath24)" fill="rgb(208,223,239)" width="190" rx="7.5" ry="7.5" height="69" stroke="none"/>
            <rect x="158" y="346" clip-path="url(#clipPath24)" fill="none" width="189" rx="7.5" ry="7.5" height="68"/>
            <text x="242" y="365" clip-path="url(#clipPath25)" fill="black" stroke="none" font-weight="bold" xml:space="preserve">red</text>
            <text x="171" y="382" clip-path="url(#clipPath26)" fill="rgb(14,48,131)" stroke="none" font-weight="bold" xml:space="preserve">entry</text>
            <text fill="black" x="205" xml:space="preserve" y="382" clip-path="url(#clipPath26)" stroke="none">/</text>
            <text x="210" y="382" clip-path="url(#clipPath26)" fill="rgb(14,48,131)" stroke="none" font-weight="bold" xml:space="preserve">raise</text>
            <text fill="black" x="240" xml:space="preserve" y="382" clip-path="url(#clipPath26)" stroke="none"> setRed: true</text>
            <text x="171" y="396" clip-path="url(#clipPath26)" fill="rgb(14,48,131)" stroke="none" font-weight="bold" xml:space="preserve">exit</text>
            <text fill="black" x="196" xml:space="preserve" y="396" clip-path="url(#clipPath26)" stroke="none"> / </text>
            <text x="209" y="396" clip-path="url(#clipPath26)" fill="rgb(14,48,131)" stroke="none" font-weight="bold" xml:space="preserve">raise</text>
            <text fill="black" x="239" xml:space="preserve" y="396" clip-path="url(#clipPath26)" stroke="none"> setRed: false</text>
            <rect x="367" y="474" clip-path="url(#clipPath27)" fill="rgb(208,223,239)" width="224" rx="7.5" ry="7.5" height="250" stroke="none"/>
            <rect x="367" y="474" clip-path="url(#clipPath27)" fill="none" width="223" rx="7.5" ry="7.5" height="249"/>
            <text x="460" y="493" clip-path="url(#clipPath28)" fill="black" stroke="none" font-weight="bold" xml:space="preserve">green</text>
            <text x="380" y="510" clip-path="url(#clipPath29)" fill="rgb(14,48,131)" stroke="none" font-weight="bold" xml:space="preserve">entry</text>
            <text fill="black" x="414" xml:space="preserve" y="510" clip-path="url(#clipPath29)" stroke="none">/</text>
            <text x="419" y="510" clip-path="url(#clipPath29)" fill="rgb(14,48,131)" stroke="none" font-weight="bold" xml:space="preserve">raise</text>
            <text fill="black" x="449" xml:space="preserve" y="510" clip-path="url(#clipPath29)" stroke="none"> setGreen: true</text>
            <text x="380" y="524" clip-path="url(#clipPath29)" fill="rgb(14,48,131)" stroke="none" font-weight="bold" xml:space="preserve">exit</text>
            <text fill="black" x="405" xml:space="preserve" y="524" clip-path="url(#clipPath29)" stroke="none"> / </text>
            <text x="418" y="524" clip-path="url(#clipPath29)" fill="rgb(14,48,131)" stroke="none" font-weight="bold" xml:space="preserve">raise</text>
            <text fill="black" x="448" xml:space="preserve" y="524" clip-path="url(#clipPath29)" stroke="none"> setGreen: false</text>
            <rect x="373" y="527" clip-path="url(#clipPath30)" fill="rgb(250,250,250)" width="213" height="192" stroke="none"/>
            <rect fill="none" x="373" width="212" height="191" y="527" clip-path="url(#clipPath30)"/>
            <text fill="black" x="384" xml:space="preserve" y="546" clip-path="url(#clipPath31)" stroke="none">exitLogic</text>
            <rect x="414" y="590" clip-path="url(#clipPath32)" fill="rgb(208,223,239)" width="136" rx="7.5" ry="7.5" height="53" stroke="none"/>
            <rect x="414" y="590" clip-path="url(#clipPath32)" fill="none" width="135" rx="7.5" ry="7.5" height="52"/>
            <text x="423" y="609" clip-path="url(#clipPath33)" fill="black" stroke="none" font-weight="bold" xml:space="preserve">exitTimerResetter</text>
            <circle fill="black" r="6.5" clip-path="url(#clipPath34)" cx="480.5" cy="561.5" stroke="none"/>
            <circle fill="black" r="6.5" clip-path="url(#clipPath35)" cx="253.5" cy="305.5" stroke="none"/>
            <rect x="536" y="346" clip-path="url(#clipPath36)" fill="rgb(208,223,239)" width="212" rx="7.5" ry="7.5" height="69" stroke="none"/>
            <rect x="536" y="346" clip-path="url(#clipPath36)" fill="none" width="211" rx="7.5" ry="7.5" height="68"/>
            <text x="620" y="365" clip-path="url(#clipPath37)" fill="black" stroke="none" font-weight="bold" xml:space="preserve">yellow</text>
            <text x="549" y="382" clip-path="url(#clipPath38)" fill="rgb(14,48,131)" stroke="none" font-weight="bold" xml:space="preserve">entry</text>
            <text fill="black" x="583" xml:space="preserve" y="382" clip-path="url(#clipPath38)" stroke="none">/</text>
            <text x="588" y="382" clip-path="url(#clipPath38)" fill="rgb(14,48,131)" stroke="none" font-weight="bold" xml:space="preserve">raise</text>
            <text fill="black" x="618" xml:space="preserve" y="382" clip-path="url(#clipPath38)" stroke="none"> setYellow: true</text>
            <text x="549" y="396" clip-path="url(#clipPath38)" fill="rgb(14,48,131)" stroke="none" font-weight="bold" xml:space="preserve">exit</text>
            <text fill="black" x="574" xml:space="preserve" y="396" clip-path="url(#clipPath38)" stroke="none"> / </text>
            <text x="587" y="396" clip-path="url(#clipPath38)" fill="rgb(14,48,131)" stroke="none" font-weight="bold" xml:space="preserve">raise</text>
            <text fill="black" x="617" xml:space="preserve" y="396" clip-path="url(#clipPath38)" stroke="none"> setYellow: false</text>
            <circle fill="black" r="6.5" clip-path="url(#clipPath39)" cx="446.5" cy="174.5" stroke="none"/>
            <rect x="874" y="135" clip-path="url(#clipPath40)" fill="rgb(250,250,250)" width="633" height="1036" stroke="none"/>
            <rect fill="none" x="874" width="632" height="1035" y="135" clip-path="url(#clipPath40)"/>
            <text fill="black" x="885" xml:space="preserve" y="154" clip-path="url(#clipPath41)" stroke="none">toggleButtonHandling</text>
            <circle fill="black" r="6.5" clip-path="url(#clipPath42)" cx="1159.5" cy="372.5" stroke="none"/>
            <rect x="1074" y="425" clip-path="url(#clipPath43)" fill="rgb(208,223,239)" width="174" rx="7.5" ry="7.5" height="53" stroke="none"/>
            <rect x="1074" y="425" clip-path="url(#clipPath43)" fill="none" width="173" rx="7.5" ry="7.5" height="52"/>
            <text x="1086" y="444" clip-path="url(#clipPath44)" fill="black" stroke="none" font-weight="bold" xml:space="preserve">ToggleModeUnpressed</text>
            <rect x="1014" y="592" clip-path="url(#clipPath45)" fill="rgb(208,223,239)" width="173" rx="7.5" ry="7.5" height="53" stroke="none"/>
            <rect x="1014" y="592" clip-path="url(#clipPath45)" fill="none" width="172" rx="7.5" ry="7.5" height="52"/>
            <text x="1056" y="611" clip-path="url(#clipPath46)" fill="black" stroke="none" font-weight="bold" xml:space="preserve">PressedShort</text>
            <rect x="1269" y="591" clip-path="url(#clipPath47)" fill="rgb(208,223,239)" width="175" rx="7.5" ry="7.5" height="53" stroke="none"/>
            <rect x="1269" y="591" clip-path="url(#clipPath47)" fill="none" width="174" rx="7.5" ry="7.5" height="52"/>
            <text x="1314" y="610" clip-path="url(#clipPath48)" fill="black" stroke="none" font-weight="bold" xml:space="preserve">PressedLong</text>
            <circle fill="white" r="4" clip-path="url(#clipPath49)" cx="53" cy="140" stroke="none"/>
        </g>
        <g font-size="10px" stroke-width="1.1" font-family="'Arial'" stroke-linecap="butt">
            <text x="51" xml:space="preserve" y="144" clip-path="url(#clipPath49)" stroke="none">1</text>
        </g>
        <g fill="white" stroke-width="1.1" font-family="'Segoe UI'" stroke-linecap="butt" stroke="white">
            <circle r="4" clip-path="url(#clipPath50)" cx="879" cy="140" stroke="none"/>
        </g>
        <g font-size="10px" stroke-width="1.1" font-family="'Arial'" stroke-linecap="butt">
            <text x="877" xml:space="preserve" y="144" clip-path="url(#clipPath50)" stroke="none">2</text>
        </g>
        <g fill="rgb(64,64,64)" stroke-width="1.1" font-family="'Verdana'" stroke-linecap="butt" stroke="rgb(64,64,64)">
            <line y2="425" fill="none" x1="1159" clip-path="url(#clipPath51)" x2="1159" y1="379"/>
            <polygon points=" 1159 425 1156 418 1162 418" clip-path="url(#clipPath52)" stroke="none"/>
            <polygon fill="none" points=" 1159 425 1156 418 1162 418" clip-path="url(#clipPath52)"/>
            <line y2="590" fill="none" x1="480" clip-path="url(#clipPath51)" x2="480" y1="568"/>
            <polygon points=" 480 590 477 583 483 583" clip-path="url(#clipPath53)" stroke="none"/>
            <polygon fill="none" points=" 480 590 477 583 483 583" clip-path="url(#clipPath53)"/>
            <line y2="647" fill="none" x1="254" clip-path="url(#clipPath51)" x2="254" y1="415"/>
            <line y2="647" fill="none" x1="254" clip-path="url(#clipPath51)" x2="367" y1="647"/>
            <polygon points=" 367 647 360 650 360 644" clip-path="url(#clipPath54)" stroke="none"/>
            <polygon fill="none" points=" 367 647 360 650 360 644" clip-path="url(#clipPath54)"/>
            <text x="189" y="633" clip-path="url(#clipPath55)" fill="rgb(14,48,131)" stroke="none" font-weight="bold" xml:space="preserve">after</text>
            <text fill="black" x="222" xml:space="preserve" y="633" clip-path="url(#clipPath55)" stroke="none"> 2</text>
            <text x="235" y="633" clip-path="url(#clipPath55)" fill="rgb(14,48,131)" stroke="none" font-weight="bold" xml:space="preserve">s</text>
            <line y2="753" fill="none" x1="328" clip-path="url(#clipPath51)" x2="328" y1="806"/>
            <polygon points=" 328 753 331 760 325 760" clip-path="url(#clipPath56)" stroke="none"/>
            <polygon fill="none" points=" 328 753 331 760 325 760" clip-path="url(#clipPath56)"/>
            <text fill="black" x="263" xml:space="preserve" y="780" clip-path="url(#clipPath57)" stroke="none">interrupt</text>
            <line y2="921" fill="none" x1="453" clip-path="url(#clipPath51)" x2="453" y1="886"/>
            <polygon points=" 453 921 450 914 456 914" clip-path="url(#clipPath58)" stroke="none"/>
            <polygon fill="none" points=" 453 921 450 914 456 914" clip-path="url(#clipPath58)"/>
            <line y2="1037" fill="none" x1="395" clip-path="url(#clipPath51)" x2="395" y1="974"/>
            <polygon points=" 395 1037 392 1030 398 1030" clip-path="url(#clipPath59)" stroke="none"/>
            <polygon fill="none" points=" 395 1037 392 1030 398 1030" clip-path="url(#clipPath59)"/>
            <text x="301" y="1010" clip-path="url(#clipPath60)" fill="rgb(14,48,131)" stroke="none" font-weight="bold" xml:space="preserve">after</text>
            <text fill="black" x="334" xml:space="preserve" y="1010" clip-path="url(#clipPath60)" stroke="none"> 500</text>
            <text x="364" y="1010" clip-path="url(#clipPath60)" fill="rgb(14,48,131)" stroke="none" font-weight="bold" xml:space="preserve">ms</text>
            <line y2="226" fill="none" x1="447" clip-path="url(#clipPath51)" x2="447" y1="182"/>
            <polygon points=" 447 226 444 219 450 219" clip-path="url(#clipPath61)" stroke="none"/>
            <polygon fill="none" points=" 447 226 444 219 450 219" clip-path="url(#clipPath61)"/>
            <line y2="592" fill="none" x1="1099" clip-path="url(#clipPath51)" x2="1099" y1="478"/>
            <polygon points=" 1099 592 1096 585 1102 585" clip-path="url(#clipPath62)" stroke="none"/>
            <polygon fill="none" points=" 1099 592 1096 585 1102 585" clip-path="url(#clipPath62)"/>
            <text fill="black" x="1105" xml:space="preserve" y="537" clip-path="url(#clipPath63)" stroke="none">buttonPressed</text>
            <line y2="380" fill="none" x1="536" clip-path="url(#clipPath51)" x2="348" y1="380"/>
            <polygon points=" 348 380 355 377 355 383" clip-path="url(#clipPath64)" stroke="none"/>
            <polygon fill="none" points=" 348 380 355 377 355 383" clip-path="url(#clipPath64)"/>
            <text x="426" y="370" clip-path="url(#clipPath65)" fill="rgb(14,48,131)" stroke="none" font-weight="bold" xml:space="preserve">after</text>
            <text fill="black" x="459" xml:space="preserve" y="370" clip-path="url(#clipPath65)" stroke="none"> 1</text>
            <text x="472" y="370" clip-path="url(#clipPath65)" fill="rgb(14,48,131)" stroke="none" font-weight="bold" xml:space="preserve">s</text>
            <line y2="618" fill="none" x1="1187" clip-path="url(#clipPath51)" x2="1269" y1="618"/>
            <polygon points=" 1269 618 1262 621 1262 615" clip-path="url(#clipPath66)" stroke="none"/>
            <polygon fill="none" points=" 1269 618 1262 621 1262 615" clip-path="url(#clipPath66)"/>
            <text x="1207" y="643" clip-path="url(#clipPath67)" fill="rgb(14,48,131)" stroke="none" font-weight="bold" xml:space="preserve">after</text>
            <text fill="black" x="1240" xml:space="preserve" y="643" clip-path="url(#clipPath67)" stroke="none"> 2</text>
            <text x="1253" y="643" clip-path="url(#clipPath67)" fill="rgb(14,48,131)" stroke="none" font-weight="bold" xml:space="preserve">s</text>
            <ellipse clip-path="url(#clipPath68)" fill="white" rx="5" cx="1191" ry="5.5" cy="616.5" stroke="none"/>
        </g>
        <g font-size="10px" stroke-width="1.1" font-family="'Arial'" stroke-linecap="butt">
            <text x="1189" xml:space="preserve" y="621" clip-path="url(#clipPath68)" stroke="none">2</text>
        </g>
        <g fill="rgb(64,64,64)" stroke-width="1.1" font-family="'Verdana'" stroke-linecap="butt" stroke="rgb(64,64,64)">
            <line y2="806" fill="none" x1="567" clip-path="url(#clipPath51)" x2="567" y1="753"/>
            <polygon points=" 567 806 564 799 570 799" clip-path="url(#clipPath69)" stroke="none"/>
            <polygon fill="none" points=" 567 806 564 799 570 799" clip-path="url(#clipPath69)"/>
            <text fill="black" x="579" xml:space="preserve" y="776" clip-path="url(#clipPath70)" stroke="none">interrupt</text>
            <line y2="451" fill="none" x1="1354" clip-path="url(#clipPath51)" x2="1354" y1="591"/>
            <line y2="451" fill="none" x1="1354" clip-path="url(#clipPath51)" x2="1248" y1="451"/>
            <polygon points=" 1248 451 1255 448 1255 454" clip-path="url(#clipPath71)" stroke="none"/>
            <polygon fill="none" points=" 1248 451 1255 448 1255 454" clip-path="url(#clipPath71)"/>
            <text fill="black" x="1302" xml:space="preserve" y="416" clip-path="url(#clipPath72)" stroke="none">buttonReleased /</text>
            <text x="1302" y="430" clip-path="url(#clipPath72)" fill="rgb(14,48,131)" stroke="none" font-weight="bold" xml:space="preserve">raise</text>
            <text fill="black" x="1332" xml:space="preserve" y="430" clip-path="url(#clipPath72)" stroke="none"> interrupt</text>
            <line y2="346" fill="none" x1="252" clip-path="url(#clipPath51)" x2="252" y1="312"/>
            <polygon points=" 252 346 249 339 255 339" clip-path="url(#clipPath73)" stroke="none"/>
            <polygon fill="none" points=" 252 346 249 339 255 339" clip-path="url(#clipPath73)"/>
            <line y2="974" fill="none" x1="504" clip-path="url(#clipPath51)" x2="504" y1="1037"/>
            <polygon points=" 504 974 507 981 501 981" clip-path="url(#clipPath74)" stroke="none"/>
            <polygon fill="none" points=" 504 974 507 981 501 981" clip-path="url(#clipPath74)"/>
            <text x="512" y="1009" clip-path="url(#clipPath75)" fill="rgb(14,48,131)" stroke="none" font-weight="bold" xml:space="preserve">after</text>
            <text fill="black" x="545" xml:space="preserve" y="1009" clip-path="url(#clipPath75)" stroke="none"> 500</text>
            <text x="575" y="1009" clip-path="url(#clipPath75)" fill="rgb(14,48,131)" stroke="none" font-weight="bold" xml:space="preserve">ms</text>
            <line y2="618" fill="none" x1="1014" clip-path="url(#clipPath51)" x2="967" y1="618"/>
            <line y2="451" fill="none" x1="967" clip-path="url(#clipPath51)" x2="967" y1="618"/>
            <line y2="451" fill="none" x1="967" clip-path="url(#clipPath51)" x2="1074" y1="451"/>
            <polygon points=" 1074 451 1067 454 1067 448" clip-path="url(#clipPath76)" stroke="none"/>
            <polygon fill="none" points=" 1074 451 1067 454 1067 448" clip-path="url(#clipPath76)"/>
            <text fill="black" x="895" xml:space="preserve" y="408" clip-path="url(#clipPath77)" stroke="none">buttonReleased /</text>
            <text fill="black" x="895" xml:space="preserve" y="422" clip-path="url(#clipPath77)" stroke="none">isSmartMode = ! isSmartMode;</text>
            <text x="895" y="436" clip-path="url(#clipPath77)" fill="rgb(14,48,131)" stroke="none" font-weight="bold" xml:space="preserve">raise</text>
            <text fill="black" x="925" xml:space="preserve" y="436" clip-path="url(#clipPath77)" stroke="none"> setLED: isSmartMode</text>
            <ellipse clip-path="url(#clipPath78)" fill="white" rx="5" cx="1006" ry="5.5" cy="616.5" stroke="none"/>
        </g>
        <g font-size="10px" stroke-width="1.1" font-family="'Arial'" stroke-linecap="butt">
            <text x="1004" xml:space="preserve" y="621" clip-path="url(#clipPath78)" stroke="none">1</text>
        </g>
        <g fill="rgb(64,64,64)" stroke-width="1.1" font-family="'Verdana'" stroke-linecap="butt" stroke="rgb(64,64,64)">
            <line y2="537" fill="none" x1="591" clip-path="url(#clipPath51)" x2="660" y1="537"/>
            <line y2="415" fill="none" x1="660" clip-path="url(#clipPath51)" x2="660" y1="537"/>
            <polygon points=" 660 415 663 422 657 422" clip-path="url(#clipPath79)" stroke="none"/>
            <polygon fill="none" points=" 660 415 663 422 657 422" clip-path="url(#clipPath79)"/>
            <text x="628" y="559" clip-path="url(#clipPath80)" fill="rgb(14,48,131)" stroke="none" font-weight="bold" xml:space="preserve">after</text>
            <text fill="black" x="661" xml:space="preserve" y="559" clip-path="url(#clipPath80)" stroke="none"> 5</text>
            <text x="674" y="559" clip-path="url(#clipPath80)" fill="rgb(14,48,131)" stroke="none" font-weight="bold" xml:space="preserve">s</text>
            <line y2="616" fill="none" x1="550" clip-path="url(#clipPath51)" x2="776" y1="616"/>
            <line y2="380" fill="none" x1="776" clip-path="url(#clipPath51)" x2="776" y1="616"/>
            <line y2="380" fill="none" x1="776" clip-path="url(#clipPath51)" x2="748" y1="380"/>
            <polygon points=" 748 380 755 377 755 383" clip-path="url(#clipPath81)" stroke="none"/>
            <polygon fill="none" points=" 748 380 755 377 755 383" clip-path="url(#clipPath81)"/>
            <text x="626" y="640" clip-path="url(#clipPath82)" fill="rgb(14,48,131)" stroke="none" font-weight="bold" xml:space="preserve">after</text>
            <text fill="black" x="659" xml:space="preserve" y="640" clip-path="url(#clipPath82)" stroke="none"> 2</text>
            <text x="672" y="640" clip-path="url(#clipPath82)" fill="rgb(14,48,131)" stroke="none" font-weight="bold" xml:space="preserve">s</text>
            <ellipse clip-path="url(#clipPath83)" fill="white" rx="5" cx="554" ry="5.5" cy="614.5" stroke="none"/>
        </g>
        <g font-size="10px" stroke-width="1.1" font-family="'Arial'" stroke-linecap="butt">
            <text x="552" xml:space="preserve" y="619" clip-path="url(#clipPath83)" stroke="none">1</text>
        </g>
        <g fill="rgb(64,64,64)" stroke-width="1.1" font-family="'Verdana'" stroke-linecap="butt" stroke="rgb(64,64,64)">
            <line y2="682" fill="none" x1="433" clip-path="url(#clipPath51)" x2="433" y1="643"/>
            <line y2="682" fill="none" x1="433" clip-path="url(#clipPath51)" x2="532" y1="682"/>
            <line y2="643" fill="none" x1="532" clip-path="url(#clipPath51)" x2="532" y1="682"/>
            <polygon points=" 532 643 535 650 529 650" clip-path="url(#clipPath84)" stroke="none"/>
            <polygon fill="none" points=" 532 643 535 650 529 650" clip-path="url(#clipPath84)"/>
            <text fill="black" x="392" xml:space="preserve" y="705" clip-path="url(#clipPath85)" stroke="none">carDetected [ isSmartMode ]</text>
            <ellipse clip-path="url(#clipPath86)" fill="white" rx="5" cx="431" ry="5.5" cy="647.5" stroke="none"/>
        </g>
        <g font-size="10px" stroke-width="1.1" font-family="'Arial'" stroke-linecap="butt">
            <text x="429" xml:space="preserve" y="652" clip-path="url(#clipPath86)" stroke="none">2</text>
        </g>
        <g fill="rgb(64,64,64)" stroke-width="1.1" font-family="'Verdana'" stroke-linecap="butt" stroke="rgb(64,64,64)">
            <line y2="96" fill="none" x1="776" clip-path="url(#clipPath51)" x2="776" y1="52"/>
            <polygon points=" 776 96 773 89 779 89" clip-path="url(#clipPath87)" stroke="none"/>
            <polygon fill="none" points=" 776 96 773 89 779 89" clip-path="url(#clipPath87)"/>
        </g>
    </g>
</svg>
